<svg xmlns="http://www.w3.org/2000/svg" xmlns:xlink="http://www.w3.org/1999/xlink" width="791" zoomAndPan="magnify" viewBox="0 0 593.25 620.250004" height="827" preserveAspectRatio="xMidYMid meet" version="1.0"><defs><clipPath id="ca87d5019e"><path d="M 153 529 L 336 529 L 336 619.484375 L 153 619.484375 Z M 153 529 " clip-rule="nonzero"/></clipPath><clipPath id="fc97a59a3d"><path d="M 165 367 L 238 367 L 238 406 L 165 406 Z M 165 367 " clip-rule="nonzero"/></clipPath><clipPath id="0448fdb17a"><path d="M 163.320312 377.601562 L 234.453125 364.871094 L 239.921875 395.421875 L 168.789062 408.15625 Z M 163.320312 377.601562 " clip-rule="nonzero"/></clipPath><clipPath id="03720e41cd"><path d="M 219.125 367.613281 C 227.5625 366.101562 235.625 371.71875 237.136719 380.15625 C 238.644531 388.59375 233.03125 396.65625 224.59375 398.167969 L 184.066406 405.421875 C 175.628906 406.929688 167.566406 401.316406 166.054688 392.878906 C 164.546875 384.441406 170.160156 376.375 178.597656 374.867188 Z M 219.125 367.613281 " clip-rule="nonzero"/></clipPath><clipPath id="5be41f1a42"><path d="M 361 367 L 434 367 L 434 407 L 361 407 Z M 361 367 " clip-rule="nonzero"/></clipPath><clipPath id="3008fb9046"><path d="M 364.773438 364.878906 L 435.8125 378.121094 L 430.121094 408.636719 L 359.082031 395.394531 Z M 364.773438 364.878906 " clip-rule="nonzero"/></clipPath><clipPath id="ed36593daf"><path d="M 420.5 375.269531 C 428.929688 376.839844 434.484375 384.945312 432.914062 393.371094 C 431.34375 401.796875 423.238281 407.351562 414.8125 405.78125 L 374.339844 398.238281 C 365.914062 396.667969 360.355469 388.5625 361.925781 380.136719 C 363.5 371.710938 371.601562 366.152344 380.027344 367.722656 Z M 420.5 375.269531 " clip-rule="nonzero"/></clipPath><clipPath id="e9b859aad8"><path d="M 0 0.015625 L 591.75 0.015625 L 591.75 354.320312 L 0 354.320312 Z M 0 0.015625 " clip-rule="nonzero"/></clipPath><clipPath id="c1e9e26a31"><path d="M 259 0.015625 L 333 0.015625 L 333 41 L 259 41 Z M 259 0.015625 " clip-rule="nonzero"/></clipPath><clipPath id="f497e54b63"><path d="M 0 216 L 591.75 216 L 591.75 354.320312 L 0 354.320312 Z M 0 216 " clip-rule="nonzero"/></clipPath><clipPath id="7813547d14"><path d="M 0 216 L 549 216 L 549 354.320312 L 0 354.320312 Z M 0 216 " clip-rule="nonzero"/></clipPath></defs><g clip-path="url(#ca87d5019e)"><path stroke-linecap="round" transform="matrix(0.718578, 0.211485, -0.211485, 0.718578, 200.08452, 572.808236)" fill="none" stroke-linejoin="miter" d="M 8.170045 7.989763 C 45.621801 25.120818 83.072293 25.106842 120.526523 7.946363 " stroke="#232126" stroke-width="12" stroke-opacity="1" stroke-miterlimit="4"/></g><g clip-path="url(#fc97a59a3d)"><g clip-path="url(#0448fdb17a)"><g clip-path="url(#03720e41cd)"><path fill="#232126" d="M 163.320312 377.601562 L 234.453125 364.871094 L 239.921875 395.421875 L 168.789062 408.15625 Z M 163.320312 377.601562 " fill-opacity="1" fill-rule="nonzero"/></g></g></g><g clip-path="url(#5be41f1a42)"><g clip-path="url(#3008fb9046)"><g clip-path="url(#ed36593daf)"><path fill="#232126" d="M 364.773438 364.878906 L 435.8125 378.121094 L 430.121094 408.636719 L 359.082031 395.394531 Z M 364.773438 364.878906 " fill-opacity="1" fill-rule="nonzero"/></g></g></g><g clip-path="url(#e9b859aad8)"><path fill="#efcfb1" d="M 579.550781 269.523438 L 486.308594 216.703125 C 465.148438 222.769531 450.328125 220.910156 452.617188 197.628906 L 447.035156 169.84375 L 332.546875 40.445312 C 332.546875 40.445312 322.394531 0.015625 295.875 0.015625 C 269.355469 0.015625 259.203125 40.445312 259.203125 40.445312 L 144.714844 169.84375 L 139.132812 197.628906 C 137.285156 211.53125 123.5625 215.886719 105.445312 216.703125 L 12.203125 269.523438 C 8.445312 271.660156 5.390625 274.726562 3.289062 278.328125 C 1.191406 281.945312 0.0234375 286.105469 0.0234375 290.4375 C 0.0234375 299.480469 5.117188 307.734375 13.179688 311.863281 C 41.046875 326.105469 118.636719 354.320312 295.875 354.320312 C 473.113281 354.320312 550.703125 326.105469 578.570312 311.863281 C 582.605469 309.796875 585.898438 306.695312 588.175781 303 C 590.453125 299.277344 591.730469 294.957031 591.730469 290.4375 C 591.730469 281.777344 587.078125 273.796875 579.550781 269.523438 Z M 277.539062 37.285156 C 277.539062 37.285156 279.210938 17.253906 295.875 17.253906 C 312.542969 17.253906 314.210938 37.285156 314.210938 37.285156 Z M 277.539062 37.285156 " fill-opacity="1" fill-rule="nonzero"/></g><path fill="#604533" d="M 403.109375 123.367188 C 409.351562 123.367188 414.398438 128.425781 414.398438 134.664062 C 414.398438 140.902344 409.351562 145.960938 403.109375 145.960938 C 396.871094 145.960938 391.8125 140.902344 391.8125 134.664062 C 391.8125 128.425781 396.871094 123.367188 403.109375 123.367188 Z M 403.109375 123.367188 " fill-opacity="1" fill-rule="nonzero"/><path fill="#604533" d="M 295.875 133.839844 C 302.113281 133.839844 307.171875 138.898438 307.171875 145.136719 C 307.171875 151.363281 302.113281 156.421875 295.875 156.421875 C 289.636719 156.421875 284.578125 151.363281 284.578125 145.136719 C 284.578125 138.898438 289.636719 133.839844 295.875 133.839844 Z M 295.875 133.839844 " fill-opacity="1" fill-rule="nonzero"/><path fill="#604533" d="M 188.640625 123.367188 C 194.878906 123.367188 199.9375 128.425781 199.9375 134.664062 C 199.9375 140.902344 194.878906 145.960938 188.640625 145.960938 C 182.402344 145.960938 177.355469 140.902344 177.355469 134.664062 C 177.355469 128.425781 182.402344 123.367188 188.640625 123.367188 Z M 188.640625 123.367188 " fill-opacity="1" fill-rule="nonzero"/><path fill="#c19b7a" d="M 277.539062 37.285156 C 279.425781 37.082031 281.320312 36.902344 283.253906 36.769531 C 237.539062 62.707031 220.300781 145.542969 220.300781 192.164062 L 220.300781 192.175781 C 168.324219 184.085938 144.714844 169.84375 144.714844 169.84375 C 155.296875 129.699219 184.335938 58.316406 259.203125 40.445312 C 265.039062 39.050781 271.144531 37.988281 277.539062 37.285156 Z M 199.9375 134.664062 C 199.9375 128.425781 194.878906 123.367188 188.640625 123.367188 C 182.402344 123.367188 177.355469 128.425781 177.355469 134.664062 C 177.355469 140.902344 182.402344 145.960938 188.640625 145.960938 C 194.878906 145.960938 199.9375 140.902344 199.9375 134.664062 Z M 199.9375 134.664062 " fill-opacity="1" fill-rule="nonzero"/><path fill="#c19b7a" d="M 314.210938 37.285156 C 320.605469 37.988281 326.714844 39.050781 332.546875 40.445312 C 407.417969 58.316406 436.453125 129.699219 447.035156 169.84375 C 447.035156 169.84375 423.425781 184.085938 371.449219 192.175781 L 371.449219 192.164062 C 371.449219 145.542969 354.210938 62.707031 308.496094 36.769531 C 310.429688 36.902344 312.328125 37.082031 314.210938 37.285156 Z M 414.398438 134.664062 C 414.398438 128.425781 409.351562 123.367188 403.109375 123.367188 C 396.871094 123.367188 391.8125 128.425781 391.8125 134.664062 C 391.8125 140.902344 396.871094 145.960938 403.109375 145.960938 C 409.351562 145.960938 414.398438 140.902344 414.398438 134.664062 Z M 414.398438 134.664062 " fill-opacity="1" fill-rule="nonzero"/><path fill="#d1af8f" d="M 371.449219 192.164062 L 371.449219 192.175781 C 350.824219 195.382812 325.734375 197.628906 295.875 197.628906 C 266.015625 197.628906 240.929688 195.382812 220.300781 192.175781 L 220.300781 192.164062 C 220.300781 145.542969 237.539062 62.707031 283.253906 36.769531 C 287.347656 36.460938 291.546875 36.304688 295.875 36.304688 C 300.207031 36.304688 304.40625 36.460938 308.496094 36.769531 C 354.210938 62.707031 371.449219 145.542969 371.449219 192.164062 Z M 307.171875 145.136719 C 307.171875 138.898438 302.113281 133.839844 295.875 133.839844 C 289.636719 133.839844 284.578125 138.898438 284.578125 145.136719 C 284.578125 151.363281 289.636719 156.421875 295.875 156.421875 C 302.113281 156.421875 307.171875 151.363281 307.171875 145.136719 Z M 307.171875 145.136719 " fill-opacity="1" fill-rule="nonzero"/><path fill="#c19b7a" d="M 452.617188 197.628906 L 486.308594 216.703125 C 486.308594 216.703125 435.605469 268.117188 295.875 268.117188 C 156.144531 268.117188 105.445312 216.703125 105.445312 216.703125 L 139.132812 197.625 C 139.132812 197.625 181.925781 229.945312 295.875 229.945312 C 409.828125 229.945312 452.617188 197.628906 452.617188 197.628906 Z M 452.617188 197.628906 " fill-opacity="1" fill-rule="nonzero"/><g clip-path="url(#c1e9e26a31)"><path fill="#dbbb9c" d="M 295.875 0.015625 C 322.394531 0.015625 332.546875 22.371094 332.546875 40.445312 C 326.714844 39.050781 320.605469 37.988281 314.210938 37.285156 C 314.210938 37.285156 312.542969 17.253906 295.875 17.253906 C 279.210938 17.253906 277.539062 37.285156 277.539062 37.285156 C 271.144531 37.988281 265.039062 39.050781 259.203125 40.445312 C 259.203125 22.371094 269.355469 0.015625 295.875 0.015625 Z M 295.875 0.015625 " fill-opacity="1" fill-rule="nonzero"/></g><path fill="#dbbb9c" d="M 447.035156 169.84375 C 451.390625 186.390625 452.617188 197.628906 452.617188 197.628906 C 452.617188 197.628906 409.828125 229.945312 295.875 229.945312 C 181.925781 229.945312 139.132812 197.628906 139.132812 197.628906 C 139.132812 197.628906 140.363281 186.390625 144.714844 169.84375 C 144.714844 169.84375 168.324219 184.085938 220.300781 192.175781 C 240.929688 195.382812 266.015625 197.628906 295.875 197.628906 C 325.734375 197.628906 350.824219 195.382812 371.449219 192.175781 C 423.425781 184.085938 447.035156 169.84375 447.035156 169.84375 Z M 447.035156 169.84375 " fill-opacity="1" fill-rule="nonzero"/><g clip-path="url(#f497e54b63)"><path fill="#dbbb9c" d="M 591.730469 290.4375 C 591.730469 294.957031 590.453125 299.277344 588.175781 303 C 585.898438 306.695312 582.605469 309.796875 578.570312 311.863281 C 571.820312 315.308594 562.15625 319.582031 548.855469 324.066406 C 507.257812 338.117188 430.179688 354.320312 295.875 354.320312 C 118.636719 354.320312 41.046875 326.105469 13.179688 311.863281 C 5.117188 307.734375 0.0234375 299.480469 0.0234375 290.4375 C 0.0234375 286.105469 1.191406 281.945312 3.289062 278.328125 C 5.390625 274.726562 8.445312 271.660156 12.203125 269.523438 L 105.445312 216.703125 C 105.445312 216.703125 156.144531 268.117188 295.875 268.117188 C 435.605469 268.117188 486.308594 216.703125 486.308594 216.703125 L 548.855469 252.132812 L 579.550781 269.523438 C 587.078125 273.796875 591.730469 281.777344 591.730469 290.4375 Z M 591.730469 290.4375 " fill-opacity="1" fill-rule="nonzero"/></g><g clip-path="url(#7813547d14)"><path fill="#d1af8f" d="M 105.445312 216.703125 L 12.203125 269.523438 C 8.445312 271.660156 5.390625 274.726562 3.289062 278.328125 C 1.191406 281.945312 0.0234375 286.105469 0.0234375 290.4375 C 0.0234375 299.480469 5.117188 307.734375 13.179688 311.863281 C 41.046875 326.105469 118.636719 354.320312 295.875 354.320312 C 430.179688 354.320312 507.257812 338.117188 548.855469 324.066406 C 329.566406 317.84375 166.855469 288.222656 105.445312 216.703125 Z M 105.445312 216.703125 " fill-opacity="1" fill-rule="nonzero"/></g></svg>