<svg xmlns="http://www.w3.org/2000/svg" xmlns:xlink="http://www.w3.org/1999/xlink" width="367" zoomAndPan="magnify" viewBox="0 0 275.25 307.500004" height="410" preserveAspectRatio="xMidYMid meet" version="1.0"><defs><clipPath id="fc29c78928"><path d="M 4 5 L 74 5 L 74 54 L 4 54 Z M 4 5 " clip-rule="nonzero"/></clipPath><clipPath id="2130e6791a"><path d="M 0 29.4375 L 66.234375 0.800781 L 78.53125 29.25 L 12.300781 57.886719 Z M 0 29.4375 " clip-rule="nonzero"/></clipPath><clipPath id="878d4e72e0"><path d="M 51.960938 6.972656 C 59.816406 3.578125 68.9375 7.191406 72.332031 15.046875 C 75.730469 22.902344 72.113281 32.027344 64.257812 35.421875 L 26.523438 51.738281 C 18.667969 55.132812 9.546875 51.519531 6.148438 43.660156 C 2.753906 35.804688 6.367188 26.683594 14.222656 23.289062 Z M 51.960938 6.972656 " clip-rule="nonzero"/></clipPath><clipPath id="66e4ae8b78"><path d="M 200 5 L 269 5 L 269 54 L 200 54 Z M 200 5 " clip-rule="nonzero"/></clipPath><clipPath id="447c9ae783"><path d="M 208.816406 0.171875 L 274.046875 31.019531 L 260.796875 59.039062 L 195.566406 28.1875 Z M 208.816406 0.171875 " clip-rule="nonzero"/></clipPath><clipPath id="e86740ff0f"><path d="M 259.988281 24.371094 C 267.726562 28.03125 271.03125 37.269531 267.371094 45.007812 C 263.714844 52.742188 254.476562 56.050781 246.738281 52.390625 L 209.574219 34.8125 C 201.835938 31.15625 198.53125 21.917969 202.191406 14.179688 C 205.847656 6.441406 215.085938 3.136719 222.824219 6.796875 Z M 259.988281 24.371094 " clip-rule="nonzero"/></clipPath><clipPath id="3d3456f270"><path d="M 0 216 L 174 216 L 174 306.832031 L 0 306.832031 Z M 0 216 " clip-rule="nonzero"/></clipPath></defs><g clip-path="url(#fc29c78928)"><g clip-path="url(#2130e6791a)"><g clip-path="url(#878d4e72e0)"><path fill="#232126" d="M 0 29.4375 L 66.234375 0.800781 L 78.53125 29.25 L 12.300781 57.886719 Z M 0 29.4375 " fill-opacity="1" fill-rule="nonzero"/></g></g></g><g clip-path="url(#66e4ae8b78)"><g clip-path="url(#447c9ae783)"><g clip-path="url(#e86740ff0f)"><path fill="#232126" d="M 208.816406 0.171875 L 274.046875 31.019531 L 260.796875 59.039062 L 195.566406 28.1875 Z M 208.816406 0.171875 " fill-opacity="1" fill-rule="nonzero"/></g></g></g><g clip-path="url(#3d3456f270)"><path stroke-linecap="round" transform="matrix(0.717532, 0.211176, -0.211176, 0.717532, 37.688538, 259.809535)" fill="none" stroke-linejoin="miter" d="M 8.170365 7.992133 C 45.619866 25.121367 83.075474 25.105611 120.527169 7.947813 " stroke="#232126" stroke-width="12" stroke-opacity="1" stroke-miterlimit="4"/></g></svg>