<svg xmlns="http://www.w3.org/2000/svg" xmlns:xlink="http://www.w3.org/1999/xlink" width="1024" zoomAndPan="magnify" viewBox="0 0 768 449.999984" height="600" preserveAspectRatio="xMidYMid meet" version="1.0"><defs><clipPath id="b445073321"><path d="M 15 347 L 53 347 L 53 377 L 15 377 Z M 15 347 " clip-rule="nonzero"/></clipPath><clipPath id="a2257eddcc"><path d="M 15.851562 340.789062 L 52.335938 340.695312 L 52.429688 376.671875 L 15.945312 376.769531 Z M 15.851562 340.789062 " clip-rule="nonzero"/></clipPath><clipPath id="beccd01230"><path d="M -3.671875 338.796875 L 123.523438 338.46875 L 123.773438 434.246094 L -3.421875 434.574219 Z M -3.671875 338.796875 " clip-rule="nonzero"/></clipPath><clipPath id="ac33bc2ccd"><path d="M 40 366 L 52 366 L 52 373 L 40 373 Z M 40 366 " clip-rule="nonzero"/></clipPath><clipPath id="fea60afccf"><path d="M 15.851562 340.789062 L 52.335938 340.695312 L 52.429688 376.671875 L 15.945312 376.769531 Z M 15.851562 340.789062 " clip-rule="nonzero"/></clipPath><clipPath id="fcc85d9e4c"><path d="M -3.671875 338.796875 L 123.523438 338.46875 L 123.773438 434.246094 L -3.421875 434.574219 Z M -3.671875 338.796875 " clip-rule="nonzero"/></clipPath><clipPath id="bb4b54410e"><path d="M 17 342 L 50 342 L 50 375 L 17 375 Z M 17 342 " clip-rule="nonzero"/></clipPath><clipPath id="9f409204ec"><path d="M 15.851562 340.789062 L 52.335938 340.695312 L 52.429688 376.671875 L 15.945312 376.769531 Z M 15.851562 340.789062 " clip-rule="nonzero"/></clipPath><clipPath id="f7b2a7f898"><path d="M -3.671875 338.796875 L 123.523438 338.46875 L 123.773438 434.246094 L -3.421875 434.574219 Z M -3.671875 338.796875 " clip-rule="nonzero"/></clipPath><clipPath id="d4632ae086"><path d="M 114 347 L 152 347 L 152 377 L 114 377 Z M 114 347 " clip-rule="nonzero"/></clipPath><clipPath id="26a57da3e4"><path d="M 114.433594 340.789062 L 150.917969 340.695312 L 151.011719 376.671875 L 114.527344 376.769531 Z M 114.433594 340.789062 " clip-rule="nonzero"/></clipPath><clipPath id="740eb2546e"><path d="M 170.367188 338.601562 L 43.171875 338.933594 L 43.417969 434.710938 L 170.617188 434.378906 Z M 170.367188 338.601562 " clip-rule="nonzero"/></clipPath><clipPath id="826caa9bf4"><path d="M 115 366 L 127 366 L 127 373 L 115 373 Z M 115 366 " clip-rule="nonzero"/></clipPath><clipPath id="e6c052cff5"><path d="M 114.433594 340.789062 L 150.917969 340.695312 L 151.011719 376.671875 L 114.527344 376.769531 Z M 114.433594 340.789062 " clip-rule="nonzero"/></clipPath><clipPath id="6f4a242fcc"><path d="M 170.367188 338.601562 L 43.171875 338.933594 L 43.417969 434.710938 L 170.617188 434.378906 Z M 170.367188 338.601562 " clip-rule="nonzero"/></clipPath><clipPath id="3bd9e84f97"><path d="M 117 342 L 150 342 L 150 375 L 117 375 Z M 117 342 " clip-rule="nonzero"/></clipPath><clipPath id="7f9dfb0cc5"><path d="M 114.433594 340.789062 L 150.917969 340.695312 L 151.011719 376.671875 L 114.527344 376.769531 Z M 114.433594 340.789062 " clip-rule="nonzero"/></clipPath><clipPath id="134f8ddfcb"><path d="M 170.367188 338.601562 L 43.171875 338.933594 L 43.417969 434.710938 L 170.617188 434.378906 Z M 170.367188 338.601562 " clip-rule="nonzero"/></clipPath><clipPath id="939cfd2458"><path d="M 53 357 L 70 357 L 70 367 L 53 367 Z M 53 357 " clip-rule="nonzero"/></clipPath><clipPath id="0f498bcdce"><path d="M 52.679688 360.253906 L 68.722656 357.382812 L 69.957031 364.273438 L 53.914062 367.144531 Z M 52.679688 360.253906 " clip-rule="nonzero"/></clipPath><clipPath id="d0ed8e2ab6"><path d="M 65.265625 358.003906 C 67.167969 357.660156 68.988281 358.929688 69.328125 360.832031 C 69.667969 362.734375 68.402344 364.550781 66.5 364.894531 L 57.359375 366.527344 C 55.457031 366.867188 53.636719 365.601562 53.296875 363.699219 C 52.957031 361.796875 54.222656 359.980469 56.125 359.636719 Z M 65.265625 358.003906 " clip-rule="nonzero"/></clipPath><clipPath id="7d97882ec4"><path d="M 97 357 L 114 357 L 114 367 L 97 367 Z M 97 357 " clip-rule="nonzero"/></clipPath><clipPath id="73157752c2"><path d="M 98.109375 357.386719 L 114.128906 360.371094 L 112.847656 367.253906 L 96.828125 364.265625 Z M 98.109375 357.386719 " clip-rule="nonzero"/></clipPath><clipPath id="06b044eccc"><path d="M 110.679688 359.730469 C 112.578125 360.082031 113.832031 361.910156 113.476562 363.8125 C 113.125 365.710938 111.296875 366.964844 109.394531 366.609375 L 100.269531 364.910156 C 98.367188 364.554688 97.113281 362.726562 97.46875 360.828125 C 97.824219 358.925781 99.652344 357.671875 101.550781 358.027344 Z M 110.679688 359.730469 " clip-rule="nonzero"/></clipPath><clipPath id="e9370a935d"><path d="M 109.980469 393.558594 L 129.574219 393.558594 L 129.574219 407.769531 L 109.980469 407.769531 Z M 109.980469 393.558594 " clip-rule="nonzero"/></clipPath><clipPath id="5fca751016"><path d="M 119.753906 393.558594 C 114.355469 393.558594 109.980469 396.742188 109.980469 400.664062 C 109.980469 404.589844 114.355469 407.769531 119.753906 407.769531 C 125.152344 407.769531 129.53125 404.589844 129.53125 400.664062 C 129.53125 396.742188 125.152344 393.558594 119.753906 393.558594 Z M 119.753906 393.558594 " clip-rule="nonzero"/></clipPath><clipPath id="69942b1988"><path d="M 37.269531 393.558594 L 56.863281 393.558594 L 56.863281 407.769531 L 37.269531 407.769531 Z M 37.269531 393.558594 " clip-rule="nonzero"/></clipPath><clipPath id="14c073207b"><path d="M 47.046875 393.558594 C 41.648438 393.558594 37.269531 396.742188 37.269531 400.664062 C 37.269531 404.589844 41.648438 407.769531 47.046875 407.769531 C 52.445312 407.769531 56.820312 404.589844 56.820312 400.664062 C 56.820312 396.742188 52.445312 393.558594 47.046875 393.558594 Z M 47.046875 393.558594 " clip-rule="nonzero"/></clipPath><clipPath id="4ff95e5f5a"><path d="M 64 386 L 103 386 L 103 414 L 64 414 Z M 64 386 " clip-rule="nonzero"/></clipPath><clipPath id="fb3a7d701c"><path d="M 64.515625 389.933594 L 100.1875 386.765625 L 102.261719 410.152344 L 66.589844 413.320312 Z M 64.515625 389.933594 " clip-rule="nonzero"/></clipPath><clipPath id="f7378a3cba"><path d="M -0.53125 323.519531 L 159.988281 309.269531 L 170.710938 430.078125 L 10.195312 444.328125 Z M -0.53125 323.519531 " clip-rule="nonzero"/></clipPath><clipPath id="965261c1ae"><path d="M 64 386 L 73 386 L 73 393 L 64 393 Z M 64 386 " clip-rule="nonzero"/></clipPath><clipPath id="6f3cb07b95"><path d="M 64.515625 389.933594 L 100.1875 386.765625 L 102.261719 410.152344 L 66.589844 413.320312 Z M 64.515625 389.933594 " clip-rule="nonzero"/></clipPath><clipPath id="657b3789ed"><path d="M -0.53125 323.519531 L 159.988281 309.269531 L 170.710938 430.078125 L 10.195312 444.328125 Z M -0.53125 323.519531 " clip-rule="nonzero"/></clipPath><clipPath id="70c71698c2"><path d="M 93 386 L 103 386 L 103 392 L 93 392 Z M 93 386 " clip-rule="nonzero"/></clipPath><clipPath id="0986defc5f"><path d="M 64.515625 389.933594 L 100.1875 386.765625 L 102.261719 410.152344 L 66.589844 413.320312 Z M 64.515625 389.933594 " clip-rule="nonzero"/></clipPath><clipPath id="142448a76d"><path d="M -0.53125 323.519531 L 159.988281 309.269531 L 170.710938 430.078125 L 10.195312 444.328125 Z M -0.53125 323.519531 " clip-rule="nonzero"/></clipPath><clipPath id="05316c9ca4"><path d="M 64 408 L 78 408 L 78 414 L 64 414 Z M 64 408 " clip-rule="nonzero"/></clipPath><clipPath id="fdc507f9db"><path d="M 64.515625 389.933594 L 100.1875 386.765625 L 102.261719 410.152344 L 66.589844 413.320312 Z M 64.515625 389.933594 " clip-rule="nonzero"/></clipPath><clipPath id="9ba9a1a04d"><path d="M -0.53125 323.519531 L 159.988281 309.269531 L 170.710938 430.078125 L 10.195312 444.328125 Z M -0.53125 323.519531 " clip-rule="nonzero"/></clipPath><clipPath id="a306e59708"><path d="M 65 388 L 102 388 L 102 412 L 65 412 Z M 65 388 " clip-rule="nonzero"/></clipPath><clipPath id="5429dbd159"><path d="M 64.515625 389.933594 L 100.1875 386.765625 L 102.261719 410.152344 L 66.589844 413.320312 Z M 64.515625 389.933594 " clip-rule="nonzero"/></clipPath><clipPath id="78542074ea"><path d="M -0.53125 323.519531 L 159.988281 309.269531 L 170.710938 430.078125 L 10.195312 444.328125 Z M -0.53125 323.519531 " clip-rule="nonzero"/></clipPath><clipPath id="60b4555b78"><path d="M 86 393 L 90 393 L 90 401 L 86 401 Z M 86 393 " clip-rule="nonzero"/></clipPath><clipPath id="9d6ac21ed7"><path d="M 64.515625 389.933594 L 100.1875 386.765625 L 102.261719 410.152344 L 66.589844 413.320312 Z M 64.515625 389.933594 " clip-rule="nonzero"/></clipPath><clipPath id="bcf5e8f53b"><path d="M -0.53125 323.519531 L 159.988281 309.269531 L 170.710938 430.078125 L 10.195312 444.328125 Z M -0.53125 323.519531 " clip-rule="nonzero"/></clipPath><clipPath id="6a82aeacd3"><path d="M 77 393 L 82 393 L 82 401 L 77 401 Z M 77 393 " clip-rule="nonzero"/></clipPath><clipPath id="bbf31c2e77"><path d="M 64.515625 389.933594 L 100.1875 386.765625 L 102.261719 410.152344 L 66.589844 413.320312 Z M 64.515625 389.933594 " clip-rule="nonzero"/></clipPath><clipPath id="696892954d"><path d="M -0.53125 323.519531 L 159.988281 309.269531 L 170.710938 430.078125 L 10.195312 444.328125 Z M -0.53125 323.519531 " clip-rule="nonzero"/></clipPath><clipPath id="5931cccc74"><path d="M 96.078125 376.757812 L 109.980469 376.757812 L 109.980469 393.589844 L 96.078125 393.589844 Z M 96.078125 376.757812 " clip-rule="nonzero"/></clipPath><clipPath id="d5dd7732d9"><path d="M 103.027344 376.757812 C 99.191406 376.757812 96.078125 380.519531 96.078125 385.15625 C 96.078125 389.796875 99.191406 393.558594 103.027344 393.558594 C 106.867188 393.558594 109.980469 389.796875 109.980469 385.15625 C 109.980469 380.519531 106.867188 376.757812 103.027344 376.757812 Z M 103.027344 376.757812 " clip-rule="nonzero"/></clipPath><clipPath id="6396872f60"><path d="M 56.820312 376.757812 L 70.722656 376.757812 L 70.722656 393.589844 L 56.820312 393.589844 Z M 56.820312 376.757812 " clip-rule="nonzero"/></clipPath><clipPath id="584975a3fc"><path d="M 63.769531 376.757812 C 59.933594 376.757812 56.820312 380.519531 56.820312 385.15625 C 56.820312 389.796875 59.933594 393.558594 63.769531 393.558594 C 67.609375 393.558594 70.722656 389.796875 70.722656 385.15625 C 70.722656 380.519531 67.609375 376.757812 63.769531 376.757812 Z M 63.769531 376.757812 " clip-rule="nonzero"/></clipPath></defs><rect x="-76.8" width="921.6" fill="#d69397" y="-44.999998" height="539.99998" fill-opacity="1"/><g clip-path="url(#b445073321)"><g clip-path="url(#a2257eddcc)"><g clip-path="url(#beccd01230)"><path fill="#d69397" d="M 113.523438 400.746094 C 113.210938 407.949219 111.089844 415.089844 106.402344 421.515625 C 105.449219 422.816406 104.367188 424.007812 103.164062 425.082031 C 101.90625 426.203125 100.5625 427.203125 99.128906 428.082031 C 97.796875 427.367188 96.730469 426.375 95.925781 425.101562 L 23.429688 425.289062 C 23.140625 425.777344 22.804688 426.230469 22.417969 426.644531 C 21.519531 426.207031 20.660156 425.761719 19.839844 425.300781 C 15.835938 423.066406 12.75 420.5625 10.933594 417.847656 C 6.882812 411.816406 4.929688 406.699219 4.488281 401.816406 C 3.644531 392.339844 8.480469 383.699219 14.832031 370.808594 C 14.953125 370.554688 15.085938 370.324219 15.199219 370.082031 C 15.992188 368.53125 16.878906 367.035156 17.863281 365.59375 C 19.652344 362.984375 21.707031 360.601562 24.027344 358.453125 C 26.347656 356.300781 28.875 354.429688 31.613281 352.839844 C 34.347656 351.253906 37.226562 349.984375 40.246094 349.039062 C 43.265625 348.09375 46.351562 347.488281 49.503906 347.230469 C 50.703125 347.125 51.910156 347.074219 53.121094 347.074219 C 60.625 347.078125 70.515625 347.578125 79.15625 349.660156 C 84.414062 350.917969 89.210938 352.773438 92.714844 355.453125 C 97.542969 359.140625 102.507812 365.121094 106.378906 372.3125 C 110.929688 380.71875 113.953125 390.800781 113.523438 400.746094 Z M 113.523438 400.746094 " fill-opacity="1" fill-rule="nonzero"/></g></g></g><g clip-path="url(#ac33bc2ccd)"><g clip-path="url(#fea60afccf)"><g clip-path="url(#fcc85d9e4c)"><path fill="#d69397" d="M 51.101562 368.519531 C 51.15625 368.898438 51.132812 369.269531 51.039062 369.640625 C 50.941406 370.011719 50.777344 370.351562 50.546875 370.65625 C 50.316406 370.960938 50.039062 371.210938 49.707031 371.402344 C 49.378906 371.597656 49.023438 371.722656 48.644531 371.773438 L 43.382812 372.511719 C 43.003906 372.566406 42.628906 372.542969 42.261719 372.449219 C 41.890625 372.351562 41.550781 372.1875 41.246094 371.957031 C 40.941406 371.726562 40.691406 371.449219 40.5 371.117188 C 40.304688 370.789062 40.179688 370.433594 40.128906 370.058594 C 40.074219 369.679688 40.09375 369.304688 40.191406 368.933594 C 40.285156 368.5625 40.449219 368.226562 40.679688 367.921875 C 40.910156 367.613281 41.191406 367.363281 41.519531 367.171875 C 41.851562 366.976562 42.203125 366.855469 42.582031 366.800781 L 45.140625 366.441406 L 47.84375 366.050781 C 48.222656 366 48.597656 366.019531 48.96875 366.117188 C 49.339844 366.210938 49.679688 366.375 49.984375 366.609375 C 50.289062 366.839844 50.539062 367.121094 50.734375 367.453125 C 50.925781 367.78125 51.050781 368.136719 51.101562 368.519531 Z M 51.101562 368.519531 " fill-opacity="1" fill-rule="nonzero"/></g></g></g><g clip-path="url(#bb4b54410e)"><g clip-path="url(#9f409204ec)"><g clip-path="url(#f7b2a7f898)"><path fill="#bb5f66" d="M 49.539062 347.25 C 49.539062 347.25 40.941406 338.683594 30.421875 344.386719 C 30.421875 344.386719 17.539062 344.578125 17.496094 361.371094 C 17.453125 378.167969 33.664062 378.6875 40.230469 365.78125 C 46.796875 352.878906 44.882812 349.902344 49.539062 347.25 Z M 49.539062 347.25 " fill-opacity="1" fill-rule="nonzero"/></g></g></g><g clip-path="url(#d4632ae086)"><g clip-path="url(#26a57da3e4)"><g clip-path="url(#740eb2546e)"><path fill="#d69397" d="M 53.496094 401.160156 C 53.84375 408.359375 56.003906 415.492188 60.722656 421.890625 C 61.683594 423.1875 62.769531 424.371094 63.984375 425.441406 C 65.246094 426.554688 66.59375 427.546875 68.035156 428.417969 C 69.359375 427.699219 70.421875 426.699219 71.21875 425.421875 L 143.714844 425.234375 C 144.007812 425.71875 144.347656 426.167969 144.734375 426.582031 C 145.628906 426.140625 146.488281 425.6875 147.308594 425.222656 C 151.296875 422.96875 154.371094 420.449219 156.171875 417.726562 C 160.191406 411.671875 162.121094 406.546875 162.535156 401.660156 C 163.328125 392.183594 158.449219 383.566406 152.03125 370.707031 C 151.90625 370.453125 151.773438 370.222656 151.660156 369.984375 C 150.859375 368.4375 149.960938 366.945312 148.96875 365.507812 C 147.167969 362.910156 145.101562 360.539062 142.769531 358.398438 C 140.4375 356.257812 137.902344 354.402344 135.15625 352.828125 C 132.410156 351.253906 129.527344 350.003906 126.503906 349.070312 C 123.480469 348.140625 120.390625 347.554688 117.234375 347.308594 C 116.035156 347.210938 114.828125 347.167969 113.617188 347.175781 C 106.113281 347.21875 96.226562 347.769531 87.597656 349.894531 C 82.34375 351.179688 77.558594 353.0625 74.066406 355.757812 C 69.257812 359.46875 64.328125 365.476562 60.492188 372.6875 C 55.988281 381.117188 53.015625 391.214844 53.496094 401.160156 Z M 53.496094 401.160156 " fill-opacity="1" fill-rule="nonzero"/></g></g></g><g clip-path="url(#826caa9bf4)"><g clip-path="url(#e6c052cff5)"><g clip-path="url(#6f4a242fcc)"><path fill="#d69397" d="M 115.75 368.605469 C 115.699219 368.984375 115.722656 369.359375 115.820312 369.730469 C 115.917969 370.097656 116.082031 370.4375 116.3125 370.742188 C 116.542969 371.042969 116.824219 371.292969 117.15625 371.484375 C 117.488281 371.675781 117.84375 371.796875 118.222656 371.847656 L 123.488281 372.5625 C 123.867188 372.613281 124.242188 372.585938 124.609375 372.488281 C 124.980469 372.390625 125.316406 372.226562 125.621094 371.996094 C 125.925781 371.761719 126.171875 371.480469 126.367188 371.152344 C 126.558594 370.820312 126.679688 370.46875 126.730469 370.089844 C 126.78125 369.710938 126.757812 369.335938 126.660156 368.964844 C 126.5625 368.59375 126.398438 368.257812 126.167969 367.953125 C 125.933594 367.648438 125.652344 367.402344 125.324219 367.210938 C 124.992188 367.015625 124.636719 366.894531 124.257812 366.84375 L 121.699219 366.496094 L 118.992188 366.125 C 118.613281 366.070312 118.238281 366.09375 117.867188 366.195312 C 117.496094 366.292969 117.160156 366.457031 116.855469 366.691406 C 116.550781 366.921875 116.300781 367.207031 116.109375 367.539062 C 115.917969 367.871094 115.796875 368.226562 115.75 368.605469 Z M 115.75 368.605469 " fill-opacity="1" fill-rule="nonzero"/></g></g></g><g clip-path="url(#3bd9e84f97)"><g clip-path="url(#7f9dfb0cc5)"><g clip-path="url(#134f8ddfcb)"><path fill="#bb5f66" d="M 117.203125 347.332031 C 117.203125 347.332031 125.753906 338.71875 136.304688 344.367188 C 136.304688 344.367188 149.1875 344.492188 149.316406 361.285156 C 149.449219 378.082031 133.238281 378.683594 126.605469 365.8125 C 119.972656 352.941406 121.871094 349.957031 117.203125 347.332031 Z M 117.203125 347.332031 " fill-opacity="1" fill-rule="nonzero"/></g></g></g><g clip-path="url(#939cfd2458)"><g clip-path="url(#0f498bcdce)"><g clip-path="url(#d0ed8e2ab6)"><path fill="#232126" d="M 52.679688 360.253906 L 68.722656 357.382812 L 69.957031 364.273438 L 53.914062 367.144531 Z M 52.679688 360.253906 " fill-opacity="1" fill-rule="nonzero"/></g></g></g><g clip-path="url(#7d97882ec4)"><g clip-path="url(#73157752c2)"><g clip-path="url(#06b044eccc)"><path fill="#232126" d="M 98.109375 357.386719 L 114.128906 360.371094 L 112.847656 367.253906 L 96.828125 364.265625 Z M 98.109375 357.386719 " fill-opacity="1" fill-rule="nonzero"/></g></g></g><g clip-path="url(#e9370a935d)"><g clip-path="url(#5fca751016)"><path fill="#bb5f66" d="M 109.980469 393.558594 L 129.515625 393.558594 L 129.515625 407.769531 L 109.980469 407.769531 Z M 109.980469 393.558594 " fill-opacity="1" fill-rule="nonzero"/></g></g><g clip-path="url(#69942b1988)"><g clip-path="url(#14c073207b)"><path fill="#bb5f66" d="M 37.269531 393.558594 L 56.808594 393.558594 L 56.808594 407.769531 L 37.269531 407.769531 Z M 37.269531 393.558594 " fill-opacity="1" fill-rule="nonzero"/></g></g><g clip-path="url(#4ff95e5f5a)"><g clip-path="url(#fb3a7d701c)"><g clip-path="url(#f7378a3cba)"><path fill="#d69397" d="M 154.0625 388.941406 C 154.453125 398.0625 152.550781 407.300781 147.335938 415.914062 C 146.273438 417.660156 145.039062 419.28125 143.636719 420.769531 C 142.171875 422.316406 140.585938 423.722656 138.871094 424.988281 C 137.117188 424.234375 135.664062 423.097656 134.507812 421.578125 L 43.066406 429.695312 C 42.753906 430.34375 42.375 430.949219 41.933594 431.511719 C 40.753906 431.058594 39.621094 430.589844 38.53125 430.097656 C 33.242188 427.714844 29.074219 424.894531 26.488281 421.664062 C 20.722656 414.492188 17.699219 408.253906 16.613281 402.136719 C 14.519531 390.277344 19.679688 378.851562 26.292969 361.894531 C 26.417969 361.5625 26.558594 361.253906 26.675781 360.941406 C 27.511719 358.894531 28.46875 356.910156 29.554688 354.984375 C 30.535156 353.246094 31.613281 351.570312 32.785156 349.949219 C 33.953125 348.332031 35.210938 346.78125 36.554688 345.304688 C 37.894531 343.824219 39.316406 342.425781 40.8125 341.105469 C 42.3125 339.785156 43.878906 338.550781 45.511719 337.402344 C 47.148438 336.253906 48.839844 335.203125 50.59375 334.242188 C 52.34375 333.285156 54.144531 332.425781 55.992188 331.667969 C 57.839844 330.90625 59.722656 330.253906 61.640625 329.703125 C 63.5625 329.152344 65.507812 328.710938 67.476562 328.378906 C 68.976562 328.113281 70.492188 327.921875 72.023438 327.789062 C 81.488281 326.976562 94.023438 326.535156 105.152344 328.21875 C 111.921875 329.234375 118.171875 331.058594 122.886719 334.054688 C 129.378906 338.183594 136.289062 345.191406 141.957031 353.839844 C 148.609375 363.953125 153.523438 376.34375 154.0625 388.941406 Z M 154.0625 388.941406 " fill-opacity="1" fill-rule="nonzero"/></g></g></g><g clip-path="url(#965261c1ae)"><g clip-path="url(#6f3cb07b95)"><g clip-path="url(#657b3789ed)"><path fill="#d69397" d="M 66.0625 376.046875 C 66.515625 376.0625 66.964844 376.132812 67.40625 376.253906 C 67.847656 376.378906 68.273438 376.554688 68.6875 376.78125 C 69.097656 377.007812 69.488281 377.28125 69.855469 377.605469 C 70.222656 377.925781 70.558594 378.289062 70.867188 378.691406 C 71.175781 379.09375 71.445312 379.53125 71.683594 380.003906 C 71.917969 380.472656 72.117188 380.964844 72.273438 381.484375 C 72.429688 382.003906 72.542969 382.539062 72.613281 383.085938 C 72.679688 383.632812 72.707031 384.183594 72.6875 384.738281 C 72.667969 385.292969 72.605469 385.84375 72.5 386.382812 C 72.390625 386.925781 72.242188 387.449219 72.050781 387.957031 C 71.859375 388.464844 71.628906 388.941406 71.359375 389.394531 C 71.09375 389.847656 70.792969 390.265625 70.457031 390.648438 C 70.121094 391.027344 69.761719 391.367188 69.371094 391.664062 C 68.984375 391.957031 68.578125 392.207031 68.148438 392.402344 C 67.722656 392.601562 67.285156 392.746094 66.835938 392.839844 C 66.386719 392.933594 65.933594 392.972656 65.480469 392.957031 C 65.027344 392.941406 64.578125 392.871094 64.136719 392.746094 C 63.695312 392.625 63.269531 392.449219 62.855469 392.222656 C 62.445312 391.996094 62.054688 391.71875 61.6875 391.398438 C 61.320312 391.078125 60.984375 390.714844 60.675781 390.3125 C 60.367188 389.910156 60.097656 389.472656 59.859375 389 C 59.625 388.53125 59.425781 388.035156 59.269531 387.515625 C 59.113281 387 59 386.464844 58.929688 385.917969 C 58.863281 385.371094 58.835938 384.820312 58.855469 384.265625 C 58.875 383.707031 58.9375 383.160156 59.042969 382.621094 C 59.152344 382.078125 59.300781 381.554688 59.492188 381.046875 C 59.683594 380.539062 59.914062 380.058594 60.183594 379.605469 C 60.449219 379.152344 60.75 378.738281 61.085938 378.355469 C 61.421875 377.972656 61.78125 377.636719 62.171875 377.339844 C 62.558594 377.042969 62.964844 376.796875 63.394531 376.601562 C 63.820312 376.402344 64.257812 376.257812 64.707031 376.164062 C 65.15625 376.070312 65.609375 376.03125 66.0625 376.046875 Z M 66.0625 376.046875 " fill-opacity="1" fill-rule="nonzero"/></g></g></g><g clip-path="url(#70c71698c2)"><g clip-path="url(#0986defc5f)"><g clip-path="url(#142448a76d)"><path fill="#d69397" d="M 101.039062 375.003906 C 101.492188 375.019531 101.941406 375.089844 102.382812 375.210938 C 102.824219 375.335938 103.25 375.511719 103.664062 375.738281 C 104.074219 375.964844 104.464844 376.238281 104.832031 376.5625 C 105.199219 376.882812 105.535156 377.246094 105.84375 377.648438 C 106.152344 378.050781 106.421875 378.488281 106.660156 378.957031 C 106.898438 379.429688 107.09375 379.921875 107.25 380.441406 C 107.40625 380.960938 107.519531 381.496094 107.589844 382.042969 C 107.65625 382.589844 107.683594 383.140625 107.664062 383.695312 C 107.644531 384.25 107.582031 384.800781 107.476562 385.339844 C 107.367188 385.882812 107.21875 386.40625 107.027344 386.914062 C 106.835938 387.421875 106.605469 387.898438 106.335938 388.351562 C 106.070312 388.804688 105.769531 389.222656 105.433594 389.605469 C 105.097656 389.984375 104.738281 390.324219 104.347656 390.621094 C 103.960938 390.914062 103.554688 391.164062 103.125 391.359375 C 102.699219 391.558594 102.261719 391.703125 101.8125 391.796875 C 101.363281 391.890625 100.910156 391.929688 100.457031 391.914062 C 100.003906 391.898438 99.554688 391.828125 99.113281 391.703125 C 98.671875 391.582031 98.246094 391.40625 97.832031 391.179688 C 97.421875 390.953125 97.03125 390.675781 96.664062 390.355469 C 96.296875 390.035156 95.960938 389.671875 95.652344 389.269531 C 95.34375 388.863281 95.074219 388.429688 94.835938 387.957031 C 94.601562 387.488281 94.402344 386.992188 94.246094 386.472656 C 94.089844 385.957031 93.976562 385.421875 93.910156 384.875 C 93.839844 384.328125 93.8125 383.777344 93.832031 383.222656 C 93.851562 382.664062 93.914062 382.117188 94.023438 381.574219 C 94.128906 381.035156 94.277344 380.511719 94.46875 380.003906 C 94.660156 379.496094 94.890625 379.015625 95.160156 378.5625 C 95.425781 378.109375 95.730469 377.695312 96.0625 377.3125 C 96.398438 376.929688 96.757812 376.59375 97.148438 376.296875 C 97.535156 376 97.941406 375.753906 98.371094 375.554688 C 98.796875 375.359375 99.234375 375.214844 99.683594 375.121094 C 100.132812 375.027344 100.585938 374.988281 101.039062 375.003906 Z M 101.039062 375.003906 " fill-opacity="1" fill-rule="nonzero"/></g></g></g><g clip-path="url(#05316c9ca4)"><g clip-path="url(#fdc507f9db)"><g clip-path="url(#9ba9a1a04d)"><path fill="#d69397" d="M 74.453125 416.605469 C 64.234375 417.515625 57.84375 410.992188 57.558594 410.695312 C 57.359375 410.464844 57.269531 410.199219 57.28125 409.894531 C 57.296875 409.59375 57.414062 409.335938 57.632812 409.125 C 57.847656 408.917969 58.109375 408.808594 58.414062 408.808594 C 58.714844 408.804688 58.976562 408.910156 59.199219 409.117188 C 59.265625 409.1875 66.019531 416.03125 76.335938 414.058594 C 76.628906 414.027344 76.894531 414.101562 77.132812 414.277344 C 77.371094 414.453125 77.519531 414.6875 77.574219 414.976562 C 77.628906 415.265625 77.578125 415.539062 77.425781 415.789062 C 77.269531 416.039062 77.046875 416.207031 76.761719 416.285156 C 76 416.429688 75.230469 416.539062 74.453125 416.605469 Z M 74.453125 416.605469 " fill-opacity="1" fill-rule="nonzero"/></g></g></g><g clip-path="url(#a306e59708)"><g clip-path="url(#5429dbd159)"><g clip-path="url(#78542074ea)"><path fill="#bb5f66" d="M 69.539062 394.105469 C 71.035156 392.542969 72.753906 391.289062 74.699219 390.34375 C 76.644531 389.402344 78.695312 388.824219 80.847656 388.613281 C 86.191406 388.125 94.152344 388.957031 99.644531 397.210938 C 108.347656 410.28125 83.660156 415.585938 70.601562 408.316406 C 62.519531 403.820312 65.835938 397.933594 69.539062 394.105469 Z M 69.539062 394.105469 " fill-opacity="1" fill-rule="nonzero"/></g></g></g><g clip-path="url(#60b4555b78)"><g clip-path="url(#9d6ac21ed7)"><g clip-path="url(#bcf5e8f53b)"><path fill="#86383f" d="M 86.046875 396.953125 C 86.042969 398.910156 86.910156 400.496094 87.976562 400.496094 C 89.042969 400.496094 89.914062 398.910156 89.925781 396.953125 C 89.9375 394.996094 89.0625 393.414062 87.996094 393.410156 C 86.925781 393.410156 86.0625 394.996094 86.046875 396.953125 Z M 86.046875 396.953125 " fill-opacity="1" fill-rule="nonzero"/></g></g></g><g clip-path="url(#6a82aeacd3)"><g clip-path="url(#bbf31c2e77)"><g clip-path="url(#696892954d)"><path fill="#86383f" d="M 77.335938 396.945312 C 77.335938 398.902344 78.199219 400.488281 79.265625 400.492188 C 80.332031 400.492188 81.203125 398.90625 81.214844 396.949219 C 81.230469 394.992188 80.351562 393.40625 79.285156 393.40625 C 78.21875 393.40625 77.332031 394.992188 77.335938 396.945312 Z M 77.335938 396.945312 " fill-opacity="1" fill-rule="nonzero"/></g></g></g><g clip-path="url(#5931cccc74)"><g clip-path="url(#d5dd7732d9)"><path fill="#232126" d="M 96.078125 376.757812 L 109.980469 376.757812 L 109.980469 393.535156 L 96.078125 393.535156 Z M 96.078125 376.757812 " fill-opacity="1" fill-rule="nonzero"/></g></g><g clip-path="url(#6396872f60)"><g clip-path="url(#584975a3fc)"><path fill="#232126" d="M 56.820312 376.757812 L 70.722656 376.757812 L 70.722656 393.535156 L 56.820312 393.535156 Z M 56.820312 376.757812 " fill-opacity="1" fill-rule="nonzero"/></g></g><path stroke-linecap="round" transform="matrix(0.162047, 0.047692, -0.047692, 0.162047, 60.971709, 410.075056)" fill="none" stroke-linejoin="miter" d="M 8.164345 7.981522 C 45.627829 25.111053 83.06349 25.109656 120.531351 7.935562 " stroke="#232126" stroke-width="12" stroke-opacity="1" stroke-miterlimit="4"/></svg>