<svg xmlns="http://www.w3.org/2000/svg" xmlns:xlink="http://www.w3.org/1999/xlink" width="800" zoomAndPan="magnify" viewBox="0 0 600 354.749987" height="473" preserveAspectRatio="xMidYMid meet" version="1.0"><defs><clipPath id="de5de22c32"><path d="M 0.210938 28 L 163 28 L 163 161 L 0.210938 161 Z M 0.210938 28 " clip-rule="nonzero"/></clipPath><clipPath id="f2fbf0781b"><path d="M 0.210938 0.421875 L 162.097656 0 L 162.511719 159.636719 L 0.625 160.058594 Z M 0.210938 0.421875 " clip-rule="nonzero"/></clipPath><clipPath id="d02ff5cfc0"><path d="M -86.40625 -8.410156 L 477.945312 -9.878906 L 479.050781 415.070312 L -85.300781 416.539062 Z M -86.40625 -8.410156 " clip-rule="nonzero"/></clipPath><clipPath id="86bb3472ed"><path d="M 107 112 L 157 112 L 157 142 L 107 142 Z M 107 112 " clip-rule="nonzero"/></clipPath><clipPath id="6b37f69cca"><path d="M 0.210938 0.421875 L 162.097656 0 L 162.511719 159.636719 L 0.625 160.058594 Z M 0.210938 0.421875 " clip-rule="nonzero"/></clipPath><clipPath id="5d44747168"><path d="M -86.40625 -8.410156 L 477.945312 -9.878906 L 479.050781 415.070312 L -85.300781 416.539062 Z M -86.40625 -8.410156 " clip-rule="nonzero"/></clipPath><clipPath id="f44e074614"><path d="M 7 7 L 150 7 L 150 152 L 7 152 Z M 7 7 " clip-rule="nonzero"/></clipPath><clipPath id="d810c2b791"><path d="M 0.210938 0.421875 L 162.097656 0 L 162.511719 159.636719 L 0.625 160.058594 Z M 0.210938 0.421875 " clip-rule="nonzero"/></clipPath><clipPath id="6cb1999b37"><path d="M -86.40625 -8.410156 L 477.945312 -9.878906 L 479.050781 415.070312 L -85.300781 416.539062 Z M -86.40625 -8.410156 " clip-rule="nonzero"/></clipPath><clipPath id="23a6bf00eb"><path d="M 437 28 L 599.789062 28 L 599.789062 161 L 437 161 Z M 437 28 " clip-rule="nonzero"/></clipPath><clipPath id="e87ae11006"><path d="M 437.601562 0.421875 L 599.488281 0 L 599.902344 159.636719 L 438.019531 160.058594 Z M 437.601562 0.421875 " clip-rule="nonzero"/></clipPath><clipPath id="f2b2eb50c8"><path d="M 685.777344 -9.28125 L 121.425781 -7.8125 L 122.53125 417.136719 L 686.882812 415.667969 Z M 685.777344 -9.28125 " clip-rule="nonzero"/></clipPath><clipPath id="80db823ffb"><path d="M 443 112 L 493 112 L 493 142 L 443 142 Z M 443 112 " clip-rule="nonzero"/></clipPath><clipPath id="005fbd7afb"><path d="M 437.601562 0.421875 L 599.488281 0 L 599.902344 159.636719 L 438.019531 160.058594 Z M 437.601562 0.421875 " clip-rule="nonzero"/></clipPath><clipPath id="d21ae688fd"><path d="M 685.777344 -9.28125 L 121.425781 -7.8125 L 122.53125 417.136719 L 686.882812 415.667969 Z M 685.777344 -9.28125 " clip-rule="nonzero"/></clipPath><clipPath id="e234139c66"><path d="M 449 7 L 593 7 L 593 152 L 449 152 Z M 449 7 " clip-rule="nonzero"/></clipPath><clipPath id="1c3b428e1f"><path d="M 437.601562 0.421875 L 599.488281 0 L 599.902344 159.636719 L 438.019531 160.058594 Z M 437.601562 0.421875 " clip-rule="nonzero"/></clipPath><clipPath id="59c7f985a3"><path d="M 685.777344 -9.28125 L 121.425781 -7.8125 L 122.53125 417.136719 L 686.882812 415.667969 Z M 685.777344 -9.28125 " clip-rule="nonzero"/></clipPath><clipPath id="94d940c55a"><path d="M 166 76 L 238 76 L 238 115 L 166 115 Z M 166 76 " clip-rule="nonzero"/></clipPath><clipPath id="633a08b210"><path d="M 163.625 86.789062 L 234.796875 74.050781 L 240.269531 104.621094 L 169.097656 117.363281 Z M 163.625 86.789062 " clip-rule="nonzero"/></clipPath><clipPath id="c37b17c252"><path d="M 219.457031 76.796875 C 227.902344 75.285156 235.96875 80.90625 237.480469 89.347656 C 238.992188 97.789062 233.371094 105.855469 224.929688 107.367188 L 184.382812 114.625 C 175.9375 116.136719 167.871094 110.519531 166.359375 102.074219 C 164.847656 93.632812 170.46875 85.566406 178.910156 84.054688 Z M 219.457031 76.796875 " clip-rule="nonzero"/></clipPath><clipPath id="63930c4560"><path d="M 362 76 L 434 76 L 434 116 L 362 116 Z M 362 76 " clip-rule="nonzero"/></clipPath><clipPath id="a188bff9ac"><path d="M 365.1875 74.0625 L 436.265625 87.3125 L 430.574219 117.84375 L 359.496094 104.59375 Z M 365.1875 74.0625 " clip-rule="nonzero"/></clipPath><clipPath id="f5f00efc61"><path d="M 420.949219 84.457031 C 429.378906 86.027344 434.9375 94.136719 433.367188 102.570312 C 431.796875 111 423.6875 116.558594 415.257812 114.988281 L 374.761719 107.4375 C 366.328125 105.867188 360.769531 97.757812 362.339844 89.328125 C 363.914062 80.898438 372.019531 75.335938 380.453125 76.910156 Z M 420.949219 84.457031 " clip-rule="nonzero"/></clipPath><clipPath id="82954b64ca"><path d="M 417.847656 234.558594 L 504.78125 234.558594 L 504.78125 297.601562 L 417.847656 297.601562 Z M 417.847656 234.558594 " clip-rule="nonzero"/></clipPath><clipPath id="bb0e04321c"><path d="M 461.21875 234.558594 C 437.265625 234.558594 417.847656 248.671875 417.847656 266.082031 C 417.847656 283.488281 437.265625 297.601562 461.21875 297.601562 C 485.171875 297.601562 504.589844 283.488281 504.589844 266.082031 C 504.589844 248.671875 485.171875 234.558594 461.21875 234.558594 Z M 461.21875 234.558594 " clip-rule="nonzero"/></clipPath><clipPath id="7dbc286620"><path d="M 95.246094 234.558594 L 182 234.558594 L 182 297.601562 L 95.246094 297.601562 Z M 95.246094 234.558594 " clip-rule="nonzero"/></clipPath><clipPath id="a8c1b32e28"><path d="M 138.617188 234.558594 C 114.664062 234.558594 95.246094 248.671875 95.246094 266.082031 C 95.246094 283.488281 114.664062 297.601562 138.617188 297.601562 C 162.570312 297.601562 181.988281 283.488281 181.988281 266.082031 C 181.988281 248.671875 162.570312 234.558594 138.617188 234.558594 Z M 138.617188 234.558594 " clip-rule="nonzero"/></clipPath><clipPath id="abeac535a3"><path d="M 216 204 L 384 204 L 384 323 L 216 323 Z M 216 204 " clip-rule="nonzero"/></clipPath><clipPath id="5a731d10a1"><path d="M 216.128906 218.460938 L 374.394531 204.414062 L 383.605469 308.179688 L 225.339844 322.230469 Z M 216.128906 218.460938 " clip-rule="nonzero"/></clipPath><clipPath id="4ad65e5dd4"><path d="M -72.46875 -76.199219 L 639.726562 -139.421875 L 687.3125 396.589844 L -24.882812 459.8125 Z M -72.46875 -76.199219 " clip-rule="nonzero"/></clipPath><clipPath id="76d0001a0d"><path d="M 216 204 L 253 204 L 253 232 L 216 232 Z M 216 204 " clip-rule="nonzero"/></clipPath><clipPath id="c998f35705"><path d="M 216.128906 218.460938 L 374.394531 204.414062 L 383.605469 308.179688 L 225.339844 322.230469 Z M 216.128906 218.460938 " clip-rule="nonzero"/></clipPath><clipPath id="23cc1b85f2"><path d="M -72.46875 -76.199219 L 639.726562 -139.421875 L 687.3125 396.589844 L -24.882812 459.8125 Z M -72.46875 -76.199219 " clip-rule="nonzero"/></clipPath><clipPath id="14c593977e"><path d="M 346 204 L 384 204 L 384 228 L 346 228 Z M 346 204 " clip-rule="nonzero"/></clipPath><clipPath id="f2311986df"><path d="M 216.128906 218.460938 L 374.394531 204.414062 L 383.605469 308.179688 L 225.339844 322.230469 Z M 216.128906 218.460938 " clip-rule="nonzero"/></clipPath><clipPath id="c72b4caa6e"><path d="M -72.46875 -76.199219 L 639.726562 -139.421875 L 687.3125 396.589844 L -24.882812 459.8125 Z M -72.46875 -76.199219 " clip-rule="nonzero"/></clipPath><clipPath id="3f195edb40"><path d="M 216 302 L 275 302 L 275 323 L 216 323 Z M 216 302 " clip-rule="nonzero"/></clipPath><clipPath id="6065b854f6"><path d="M 216.128906 218.460938 L 374.394531 204.414062 L 383.605469 308.179688 L 225.339844 322.230469 Z M 216.128906 218.460938 " clip-rule="nonzero"/></clipPath><clipPath id="a0b808bff0"><path d="M -72.46875 -76.199219 L 639.726562 -139.421875 L 687.3125 396.589844 L -24.882812 459.8125 Z M -72.46875 -76.199219 " clip-rule="nonzero"/></clipPath><clipPath id="2ec917d46a"><path d="M 220 212 L 381 212 L 381 315 L 220 315 Z M 220 212 " clip-rule="nonzero"/></clipPath><clipPath id="52dfd83b85"><path d="M 216.128906 218.460938 L 374.394531 204.414062 L 383.605469 308.179688 L 225.339844 322.230469 Z M 216.128906 218.460938 " clip-rule="nonzero"/></clipPath><clipPath id="a875eb56c5"><path d="M -72.46875 -76.199219 L 639.726562 -139.421875 L 687.3125 396.589844 L -24.882812 459.8125 Z M -72.46875 -76.199219 " clip-rule="nonzero"/></clipPath><clipPath id="2b72163c1d"><path d="M 311 233 L 329 233 L 329 266 L 311 266 Z M 311 233 " clip-rule="nonzero"/></clipPath><clipPath id="48b6d44022"><path d="M 216.128906 218.460938 L 374.394531 204.414062 L 383.605469 308.179688 L 225.339844 322.230469 Z M 216.128906 218.460938 " clip-rule="nonzero"/></clipPath><clipPath id="9b4efa5a23"><path d="M -72.46875 -76.199219 L 639.726562 -139.421875 L 687.3125 396.589844 L -24.882812 459.8125 Z M -72.46875 -76.199219 " clip-rule="nonzero"/></clipPath><clipPath id="d9853afada"><path d="M 273 233 L 291 233 L 291 266 L 273 266 Z M 273 233 " clip-rule="nonzero"/></clipPath><clipPath id="3ac0b1d99e"><path d="M 216.128906 218.460938 L 374.394531 204.414062 L 383.605469 308.179688 L 225.339844 322.230469 Z M 216.128906 218.460938 " clip-rule="nonzero"/></clipPath><clipPath id="8fb42a8a7c"><path d="M -72.46875 -76.199219 L 639.726562 -139.421875 L 687.3125 396.589844 L -24.882812 459.8125 Z M -72.46875 -76.199219 " clip-rule="nonzero"/></clipPath><clipPath id="4bb4218bfb"><path d="M 356.171875 160.003906 L 417.847656 160.003906 L 417.847656 234.6875 L 356.171875 234.6875 Z M 356.171875 160.003906 " clip-rule="nonzero"/></clipPath><clipPath id="767197e287"><path d="M 387.011719 160.003906 C 369.980469 160.003906 356.171875 176.695312 356.171875 197.28125 C 356.171875 217.867188 369.980469 234.558594 387.011719 234.558594 C 404.042969 234.558594 417.847656 217.867188 417.847656 197.28125 C 417.847656 176.695312 404.042969 160.003906 387.011719 160.003906 Z M 387.011719 160.003906 " clip-rule="nonzero"/></clipPath><clipPath id="0e0eb73cb1"><path d="M 181.988281 160.003906 L 243.664062 160.003906 L 243.664062 234.6875 L 181.988281 234.6875 Z M 181.988281 160.003906 " clip-rule="nonzero"/></clipPath><clipPath id="35fbe1812f"><path d="M 212.828125 160.003906 C 195.796875 160.003906 181.988281 176.695312 181.988281 197.28125 C 181.988281 217.867188 195.796875 234.558594 212.828125 234.558594 C 229.859375 234.558594 243.664062 217.867188 243.664062 197.28125 C 243.664062 176.695312 229.859375 160.003906 212.828125 160.003906 Z M 212.828125 160.003906 " clip-rule="nonzero"/></clipPath><clipPath id="914e41b024"><path d="M 153 264 L 337 264 L 337 354.5 L 153 354.5 Z M 153 264 " clip-rule="nonzero"/></clipPath></defs><g clip-path="url(#de5de22c32)"><g clip-path="url(#f2fbf0781b)"><g clip-path="url(#d02ff5cfc0)"><path fill="#d69397" d="M 433.570312 266.453125 C 432.1875 298.40625 422.769531 330.089844 401.980469 358.589844 C 397.746094 364.371094 392.953125 369.648438 387.605469 374.421875 C 382.03125 379.390625 376.0625 383.824219 369.699219 387.726562 C 366.800781 386.171875 364.148438 384.277344 361.742188 382.035156 C 359.332031 379.796875 357.25 377.285156 355.492188 374.507812 L 33.847656 375.34375 C 32.5625 377.503906 31.0625 379.507812 29.347656 381.347656 C 25.371094 379.402344 21.554688 377.429688 17.902344 375.382812 C 0.152344 365.46875 -13.550781 354.367188 -21.605469 342.316406 C -39.570312 315.554688 -48.246094 292.863281 -50.199219 271.183594 C -53.941406 229.15625 -32.492188 190.816406 -4.308594 133.617188 C -3.769531 132.488281 -3.1875 131.460938 -2.683594 130.398438 C 0.839844 123.507812 4.78125 116.867188 9.148438 110.476562 C 11.125 107.59375 13.179688 104.765625 15.3125 101.996094 C 17.449219 99.226562 19.65625 96.519531 21.941406 93.875 C 24.226562 91.226562 26.582031 88.644531 29.007812 86.128906 C 31.4375 83.613281 33.929688 81.167969 36.496094 78.789062 C 39.058594 76.410156 41.683594 74.105469 44.375 71.875 C 47.066406 69.644531 49.816406 67.488281 52.628906 65.410156 C 55.441406 63.332031 58.304688 61.332031 61.226562 59.410156 C 64.148438 57.492188 67.121094 55.652344 70.144531 53.898438 C 73.167969 52.144531 76.238281 50.472656 79.355469 48.890625 C 82.472656 47.304688 85.628906 45.808594 88.828125 44.398438 C 92.027344 42.988281 95.265625 41.671875 98.539062 40.441406 C 101.8125 39.210938 105.113281 38.074219 108.449219 37.027344 C 111.785156 35.980469 115.148438 35.027344 118.539062 34.167969 C 121.925781 33.308594 125.335938 32.542969 128.765625 31.871094 C 132.199219 31.203125 135.644531 30.625 139.109375 30.148438 C 142.570312 29.667969 146.046875 29.285156 149.53125 29 C 154.84375 28.535156 160.203125 28.316406 165.582031 28.316406 C 198.867188 28.328125 242.753906 30.550781 281.09375 39.78125 C 304.417969 45.363281 325.695312 53.601562 341.25 65.484375 C 362.675781 81.847656 384.6875 108.382812 401.867188 140.28125 C 422.058594 177.585938 435.476562 222.320312 433.570312 266.453125 Z M 433.570312 266.453125 " fill-opacity="1" fill-rule="nonzero"/></g></g></g><g clip-path="url(#86bb3472ed)"><g clip-path="url(#6b37f69cca)"><g clip-path="url(#5d44747168)"><path fill="#d69397" d="M 156.613281 123.453125 C 156.730469 124.285156 156.765625 125.121094 156.71875 125.957031 C 156.671875 126.796875 156.542969 127.625 156.332031 128.4375 C 156.121094 129.25 155.832031 130.035156 155.46875 130.792969 C 155.101562 131.550781 154.667969 132.265625 154.160156 132.933594 C 153.65625 133.605469 153.089844 134.222656 152.460938 134.78125 C 151.835938 135.339844 151.160156 135.832031 150.433594 136.257812 C 149.710938 136.683594 148.949219 137.035156 148.15625 137.3125 C 147.363281 137.585938 146.550781 137.785156 145.71875 137.898438 L 122.371094 141.175781 C 121.539062 141.292969 120.703125 141.324219 119.863281 141.277344 C 119.027344 141.226562 118.199219 141.097656 117.386719 140.886719 C 116.574219 140.675781 115.789062 140.390625 115.035156 140.023438 C 114.277344 139.65625 113.5625 139.222656 112.894531 138.714844 C 112.222656 138.210938 111.605469 137.644531 111.046875 137.019531 C 110.488281 136.390625 109.996094 135.714844 109.570312 134.992188 C 109.144531 134.269531 108.792969 133.511719 108.515625 132.71875 C 108.238281 131.925781 108.039062 131.113281 107.921875 130.28125 C 107.804688 129.449219 107.773438 128.613281 107.820312 127.773438 C 107.867188 126.933594 107.996094 126.109375 108.207031 125.296875 C 108.417969 124.480469 108.707031 123.699219 109.070312 122.941406 C 109.4375 122.183594 109.871094 121.46875 110.378906 120.800781 C 110.882812 120.128906 111.449219 119.515625 112.078125 118.953125 C 112.703125 118.394531 113.378906 117.902344 114.105469 117.476562 C 114.828125 117.050781 115.585938 116.699219 116.378906 116.421875 C 117.171875 116.144531 117.988281 115.949219 118.820312 115.832031 L 130.164062 114.234375 L 142.164062 112.511719 C 143 112.394531 143.835938 112.359375 144.675781 112.40625 C 145.515625 112.457031 146.34375 112.585938 147.160156 112.796875 C 147.976562 113.007812 148.761719 113.296875 149.519531 113.664062 C 150.277344 114.03125 150.992188 114.46875 151.664062 114.980469 C 152.335938 115.488281 152.949219 116.054688 153.507812 116.6875 C 154.066406 117.316406 154.558594 117.996094 154.984375 118.722656 C 155.40625 119.449219 155.757812 120.210938 156.03125 121.007812 C 156.304688 121.800781 156.5 122.617188 156.613281 123.453125 Z M 156.613281 123.453125 " fill-opacity="1" fill-rule="nonzero"/></g></g></g><g clip-path="url(#f44e074614)"><g clip-path="url(#d810c2b791)"><g clip-path="url(#6cb1999b37)"><path fill="#bb5f66" d="M 149.675781 29.089844 C 149.675781 29.089844 111.53125 -8.914062 64.855469 16.378906 C 64.855469 16.378906 7.699219 17.226562 7.507812 91.75 C 7.316406 166.273438 79.25 168.570312 108.382812 111.3125 C 137.511719 54.054688 129.027344 40.855469 149.675781 29.089844 Z M 149.675781 29.089844 " fill-opacity="1" fill-rule="nonzero"/></g></g></g><g clip-path="url(#23a6bf00eb)"><g clip-path="url(#e87ae11006)"><g clip-path="url(#f2b2eb50c8)"><path fill="#d69397" d="M 167.238281 268.28125 C 168.789062 300.230469 178.371094 331.863281 199.304688 360.253906 C 203.574219 366.015625 208.394531 371.265625 213.765625 376.011719 C 219.363281 380.949219 225.355469 385.351562 231.738281 389.222656 C 234.628906 387.652344 237.273438 385.742188 239.667969 383.492188 C 242.0625 381.238281 244.132812 378.71875 245.875 375.929688 L 567.523438 375.09375 C 568.820312 377.246094 570.328125 379.242188 572.050781 381.070312 C 576.019531 379.109375 579.828125 377.113281 583.464844 375.050781 C 601.164062 365.042969 614.8125 353.871094 622.800781 341.777344 C 640.625 314.921875 649.1875 292.1875 651.027344 270.5 C 654.550781 228.449219 632.902344 190.222656 604.421875 133.171875 C 603.875 132.046875 603.289062 131.019531 602.777344 129.960938 C 599.21875 123.089844 595.242188 116.46875 590.84375 110.101562 C 588.851562 107.226562 586.78125 104.414062 584.632812 101.652344 C 582.484375 98.894531 580.261719 96.199219 577.964844 93.566406 C 575.667969 90.929688 573.296875 88.359375 570.855469 85.859375 C 568.417969 83.355469 565.90625 80.921875 563.332031 78.558594 C 560.757812 76.191406 558.117188 73.902344 555.414062 71.683594 C 552.710938 69.464844 549.949219 67.324219 547.128906 65.261719 C 544.308594 63.195312 541.429688 61.210938 538.5 59.308594 C 535.566406 57.402344 532.585938 55.582031 529.550781 53.84375 C 526.519531 52.101562 523.441406 50.449219 520.316406 48.878906 C 517.191406 47.3125 514.027344 45.832031 510.820312 44.4375 C 507.613281 43.046875 504.371094 41.742188 501.089844 40.53125 C 497.8125 39.320312 494.5 38.199219 491.160156 37.167969 C 487.820312 36.140625 484.453125 35.203125 481.058594 34.363281 C 477.664062 33.519531 474.25 32.773438 470.816406 32.121094 C 467.382812 31.46875 463.933594 30.910156 460.464844 30.449219 C 457 29.988281 453.523438 29.625 450.039062 29.355469 C 444.722656 28.917969 439.363281 28.730469 433.984375 28.753906 C 400.699219 28.941406 356.828125 31.390625 318.535156 40.820312 C 295.238281 46.523438 274.003906 54.871094 258.511719 66.839844 C 237.171875 83.308594 215.296875 109.960938 198.285156 141.945312 C 178.289062 179.355469 165.101562 224.160156 167.238281 268.28125 Z M 167.238281 268.28125 " fill-opacity="1" fill-rule="nonzero"/></g></g></g><g clip-path="url(#80db823ffb)"><g clip-path="url(#005fbd7afb)"><g clip-path="url(#d21ae688fd)"><path fill="#d69397" d="M 443.449219 123.84375 C 443.335938 124.675781 443.304688 125.511719 443.355469 126.351562 C 443.40625 127.1875 443.539062 128.015625 443.753906 128.828125 C 443.96875 129.640625 444.261719 130.421875 444.628906 131.179688 C 445 131.933594 445.4375 132.644531 445.949219 133.3125 C 446.457031 133.980469 447.027344 134.59375 447.660156 135.148438 C 448.289062 135.707031 448.96875 136.195312 449.695312 136.617188 C 450.421875 137.039062 451.179688 137.386719 451.976562 137.660156 C 452.769531 137.929688 453.585938 138.121094 454.417969 138.234375 L 477.78125 141.390625 C 478.613281 141.5 479.449219 141.53125 480.289062 141.476562 C 481.125 141.425781 481.953125 141.289062 482.761719 141.074219 C 483.574219 140.859375 484.359375 140.566406 485.113281 140.199219 C 485.867188 139.828125 486.578125 139.390625 487.246094 138.878906 C 487.914062 138.371094 488.527344 137.800781 489.082031 137.171875 C 489.636719 136.542969 490.128906 135.863281 490.550781 135.140625 C 490.972656 134.414062 491.320312 133.652344 491.59375 132.859375 C 491.867188 132.0625 492.058594 131.25 492.171875 130.417969 C 492.285156 129.585938 492.316406 128.75 492.261719 127.910156 C 492.210938 127.074219 492.078125 126.246094 491.863281 125.433594 C 491.648438 124.625 491.355469 123.839844 490.984375 123.085938 C 490.617188 122.332031 490.175781 121.617188 489.667969 120.949219 C 489.160156 120.28125 488.589844 119.671875 487.960938 119.113281 C 487.328125 118.558594 486.652344 118.070312 485.925781 117.648438 C 485.199219 117.226562 484.4375 116.878906 483.644531 116.605469 C 482.847656 116.332031 482.035156 116.140625 481.203125 116.027344 L 469.847656 114.488281 L 457.839844 112.828125 C 457.003906 112.714844 456.167969 112.683594 455.328125 112.738281 C 454.484375 112.789062 453.660156 112.921875 452.84375 113.140625 C 452.03125 113.355469 451.246094 113.648438 450.492188 114.019531 C 449.734375 114.390625 449.023438 114.832031 448.355469 115.34375 C 447.683594 115.855469 447.074219 116.429688 446.519531 117.0625 C 445.960938 117.695312 445.472656 118.375 445.054688 119.105469 C 444.632812 119.832031 444.285156 120.597656 444.015625 121.394531 C 443.746094 122.191406 443.558594 123.007812 443.449219 123.84375 Z M 443.449219 123.84375 " fill-opacity="1" fill-rule="nonzero"/></g></g></g><g clip-path="url(#e234139c66)"><g clip-path="url(#1c3b428e1f)"><g clip-path="url(#59c7f985a3)"><path fill="#bb5f66" d="M 449.894531 29.445312 C 449.894531 29.445312 487.839844 -8.753906 534.648438 16.296875 C 534.648438 16.296875 591.808594 16.847656 592.386719 91.367188 C 592.964844 165.890625 521.042969 168.558594 491.617188 111.453125 C 462.1875 54.347656 470.605469 41.105469 449.894531 29.445312 Z M 449.894531 29.445312 " fill-opacity="1" fill-rule="nonzero"/></g></g></g><g clip-path="url(#94d940c55a)"><g clip-path="url(#633a08b210)"><g clip-path="url(#c37b17c252)"><path fill="#232126" d="M 163.625 86.789062 L 234.796875 74.050781 L 240.269531 104.621094 L 169.097656 117.363281 Z M 163.625 86.789062 " fill-opacity="1" fill-rule="nonzero"/></g></g></g><g clip-path="url(#63930c4560)"><g clip-path="url(#a188bff9ac)"><g clip-path="url(#f5f00efc61)"><path fill="#232126" d="M 365.1875 74.0625 L 436.265625 87.3125 L 430.574219 117.84375 L 359.496094 104.59375 Z M 365.1875 74.0625 " fill-opacity="1" fill-rule="nonzero"/></g></g></g><g clip-path="url(#82954b64ca)"><g clip-path="url(#bb0e04321c)"><path fill="#bb5f66" d="M 417.847656 234.558594 L 504.535156 234.558594 L 504.535156 297.601562 L 417.847656 297.601562 Z M 417.847656 234.558594 " fill-opacity="1" fill-rule="nonzero"/></g></g><g clip-path="url(#7dbc286620)"><g clip-path="url(#a8c1b32e28)"><path fill="#bb5f66" d="M 95.246094 234.558594 L 181.933594 234.558594 L 181.933594 297.601562 L 95.246094 297.601562 Z M 95.246094 234.558594 " fill-opacity="1" fill-rule="nonzero"/></g></g><g clip-path="url(#abeac535a3)"><g clip-path="url(#5a731d10a1)"><g clip-path="url(#4ad65e5dd4)"><path fill="#d69397" d="M 613.433594 214.0625 C 615.164062 254.53125 606.726562 295.527344 583.597656 333.742188 C 578.878906 341.496094 573.40625 348.675781 567.175781 355.28125 C 560.683594 362.152344 553.636719 368.394531 546.03125 374.011719 C 542.207031 372.367188 538.65625 370.261719 535.375 367.695312 C 532.09375 365.132812 529.191406 362.191406 526.671875 358.875 L 120.957031 394.890625 C 119.574219 397.757812 117.898438 400.445312 115.9375 402.953125 C 110.707031 400.9375 105.675781 398.859375 100.847656 396.675781 C 77.375 386.09375 58.878906 373.578125 47.410156 359.25 C 21.835938 327.441406 8.417969 299.757812 3.601562 272.617188 C -5.691406 219.996094 17.207031 169.292969 46.546875 94.066406 C 47.101562 92.582031 47.726562 91.222656 48.25 89.828125 C 51.941406 80.75 56.195312 71.945312 61.007812 63.40625 C 63.1875 59.554688 65.472656 55.765625 67.867188 52.039062 C 70.257812 48.3125 72.75 44.65625 75.34375 41.070312 C 77.9375 37.480469 80.628906 33.96875 83.417969 30.53125 C 86.207031 27.09375 89.089844 23.734375 92.066406 20.457031 C 95.042969 17.179688 98.105469 13.984375 101.257812 10.878906 C 104.410156 7.769531 107.648438 4.75 110.96875 1.824219 C 114.289062 -1.105469 117.6875 -3.941406 121.164062 -6.679688 C 124.640625 -9.417969 128.191406 -12.0625 131.816406 -14.605469 C 135.441406 -17.148438 139.132812 -19.585938 142.890625 -21.925781 C 146.652344 -24.261719 150.472656 -26.496094 154.355469 -28.621094 C 158.242188 -30.746094 162.179688 -32.761719 166.175781 -34.667969 C 170.171875 -36.578125 174.214844 -38.371094 178.308594 -40.054688 C 182.40625 -41.738281 186.542969 -43.304688 190.726562 -44.757812 C 194.90625 -46.210938 199.125 -47.546875 203.382812 -48.765625 C 207.640625 -49.984375 211.925781 -51.085938 216.242188 -52.066406 C 220.558594 -53.046875 224.902344 -53.90625 229.265625 -54.648438 C 235.917969 -55.8125 242.65625 -56.667969 249.445312 -57.257812 C 291.441406 -60.855469 347.046875 -62.820312 396.421875 -55.34375 C 426.457031 -50.835938 454.199219 -42.757812 475.117188 -29.453125 C 503.925781 -11.140625 534.582031 19.945312 559.71875 58.324219 C 589.25 103.195312 611.042969 158.175781 613.433594 214.0625 Z M 613.433594 214.0625 " fill-opacity="1" fill-rule="nonzero"/></g></g></g><g clip-path="url(#76d0001a0d)"><g clip-path="url(#c998f35705)"><g clip-path="url(#23cc1b85f2)"><path fill="#d69397" d="M 222.992188 156.859375 C 223.996094 156.890625 224.996094 156.988281 225.992188 157.140625 C 226.988281 157.296875 227.976562 157.511719 228.953125 157.785156 C 229.929688 158.058594 230.894531 158.390625 231.84375 158.777344 C 232.792969 159.167969 233.722656 159.613281 234.636719 160.117188 C 235.550781 160.617188 236.4375 161.175781 237.304688 161.785156 C 238.171875 162.394531 239.011719 163.054688 239.824219 163.765625 C 240.636719 164.476562 241.417969 165.234375 242.167969 166.042969 C 242.917969 166.847656 243.632812 167.695312 244.3125 168.589844 C 244.992188 169.484375 245.636719 170.414062 246.242188 171.386719 C 246.847656 172.359375 247.410156 173.363281 247.933594 174.40625 C 248.457031 175.445312 248.9375 176.515625 249.375 177.617188 C 249.808594 178.714844 250.199219 179.839844 250.546875 180.988281 C 250.890625 182.136719 251.191406 183.304688 251.441406 184.488281 C 251.695312 185.675781 251.894531 186.875 252.050781 188.085938 C 252.207031 189.296875 252.3125 190.515625 252.367188 191.742188 C 252.425781 192.96875 252.433594 194.195312 252.390625 195.421875 C 252.347656 196.652344 252.257812 197.875 252.117188 199.09375 C 251.976562 200.3125 251.785156 201.523438 251.546875 202.722656 C 251.3125 203.917969 251.027344 205.101562 250.695312 206.265625 C 250.363281 207.433594 249.984375 208.578125 249.5625 209.699219 C 249.136719 210.820312 248.667969 211.914062 248.160156 212.980469 C 247.648438 214.046875 247.09375 215.082031 246.503906 216.085938 C 245.910156 217.089844 245.277344 218.054688 244.605469 218.980469 C 243.9375 219.910156 243.230469 220.792969 242.492188 221.640625 C 241.75 222.484375 240.976562 223.28125 240.175781 224.035156 C 239.371094 224.789062 238.539062 225.492188 237.679688 226.144531 C 236.820312 226.796875 235.9375 227.398438 235.03125 227.949219 C 234.125 228.496094 233.199219 228.992188 232.257812 229.429688 C 231.3125 229.867188 230.351562 230.246094 229.378906 230.570312 C 228.40625 230.894531 227.421875 231.160156 226.425781 231.367188 C 225.433594 231.570312 224.433594 231.71875 223.429688 231.804688 C 222.425781 231.890625 221.421875 231.914062 220.414062 231.878906 C 219.410156 231.847656 218.410156 231.75 217.414062 231.597656 C 216.417969 231.441406 215.429688 231.226562 214.453125 230.953125 C 213.476562 230.679688 212.511719 230.347656 211.5625 229.960938 C 210.613281 229.570312 209.683594 229.125 208.769531 228.621094 C 207.859375 228.121094 206.96875 227.5625 206.101562 226.953125 C 205.234375 226.34375 204.394531 225.683594 203.585938 224.972656 C 202.773438 224.261719 201.992188 223.503906 201.242188 222.699219 C 200.492188 221.890625 199.773438 221.042969 199.09375 220.148438 C 198.414062 219.253906 197.769531 218.324219 197.164062 217.351562 C 196.5625 216.378906 195.996094 215.375 195.472656 214.332031 C 194.949219 213.292969 194.46875 212.222656 194.035156 211.121094 C 193.597656 210.023438 193.207031 208.898438 192.859375 207.75 C 192.515625 206.601562 192.214844 205.433594 191.964844 204.25 C 191.714844 203.0625 191.511719 201.867188 191.355469 200.652344 C 191.199219 199.441406 191.09375 198.222656 191.039062 196.996094 C 190.984375 195.769531 190.976562 194.542969 191.015625 193.316406 C 191.058594 192.085938 191.152344 190.863281 191.292969 189.644531 C 191.433594 188.425781 191.621094 187.214844 191.859375 186.015625 C 192.097656 184.820312 192.378906 183.636719 192.710938 182.472656 C 193.042969 181.304688 193.421875 180.164062 193.847656 179.039062 C 194.269531 177.917969 194.738281 176.824219 195.25 175.757812 C 195.757812 174.691406 196.3125 173.65625 196.90625 172.652344 C 197.5 171.652344 198.128906 170.683594 198.800781 169.757812 C 199.46875 168.828125 200.175781 167.945312 200.917969 167.097656 C 201.65625 166.253906 202.429688 165.457031 203.230469 164.703125 C 204.035156 163.953125 204.867188 163.246094 205.726562 162.59375 C 206.585938 161.941406 207.46875 161.339844 208.375 160.789062 C 209.28125 160.242188 210.207031 159.75 211.152344 159.308594 C 212.09375 158.871094 213.054688 158.492188 214.027344 158.167969 C 215.003906 157.84375 215.988281 157.578125 216.980469 157.371094 C 217.972656 157.167969 218.972656 157.019531 219.976562 156.933594 C 220.980469 156.847656 221.988281 156.824219 222.992188 156.859375 Z M 222.992188 156.859375 " fill-opacity="1" fill-rule="nonzero"/></g></g></g><g clip-path="url(#14c593977e)"><g clip-path="url(#f2311986df)"><g clip-path="url(#c72b4caa6e)"><path fill="#d69397" d="M 378.179688 152.230469 C 379.183594 152.261719 380.183594 152.359375 381.179688 152.511719 C 382.175781 152.667969 383.164062 152.882812 384.140625 153.15625 C 385.117188 153.429688 386.082031 153.761719 387.03125 154.148438 C 387.980469 154.539062 388.910156 154.984375 389.824219 155.488281 C 390.738281 155.988281 391.625 156.546875 392.492188 157.15625 C 393.359375 157.765625 394.199219 158.425781 395.011719 159.136719 C 395.824219 159.847656 396.601562 160.605469 397.355469 161.414062 C 398.105469 162.21875 398.820312 163.066406 399.5 163.960938 C 400.179688 164.855469 400.824219 165.785156 401.429688 166.757812 C 402.035156 167.730469 402.597656 168.734375 403.121094 169.777344 C 403.644531 170.816406 404.125 171.886719 404.5625 172.988281 C 404.996094 174.085938 405.386719 175.210938 405.734375 176.359375 C 406.078125 177.507812 406.378906 178.675781 406.628906 179.859375 C 406.878906 181.046875 407.082031 182.246094 407.238281 183.457031 C 407.394531 184.667969 407.5 185.886719 407.554688 187.113281 C 407.613281 188.339844 407.617188 189.566406 407.578125 190.792969 C 407.535156 192.023438 407.441406 193.246094 407.300781 194.464844 C 407.164062 195.683594 406.972656 196.894531 406.734375 198.09375 C 406.5 199.289062 406.214844 200.472656 405.882812 201.636719 C 405.550781 202.804688 405.171875 203.949219 404.746094 205.070312 C 404.324219 206.191406 403.855469 207.285156 403.347656 208.351562 C 402.835938 209.421875 402.28125 210.453125 401.691406 211.457031 C 401.097656 212.460938 400.464844 213.425781 399.792969 214.351562 C 399.125 215.28125 398.417969 216.167969 397.679688 217.011719 C 396.9375 217.855469 396.164062 218.652344 395.363281 219.40625 C 394.558594 220.160156 393.726562 220.863281 392.867188 221.515625 C 392.007812 222.167969 391.125 222.769531 390.21875 223.320312 C 389.3125 223.867188 388.386719 224.363281 387.445312 224.800781 C 386.5 225.238281 385.539062 225.617188 384.566406 225.941406 C 383.589844 226.265625 382.609375 226.53125 381.613281 226.738281 C 380.621094 226.941406 379.621094 227.089844 378.617188 227.175781 C 377.613281 227.261719 376.609375 227.285156 375.601562 227.253906 C 374.597656 227.21875 373.597656 227.121094 372.601562 226.96875 C 371.605469 226.8125 370.617188 226.597656 369.640625 226.324219 C 368.664062 226.050781 367.699219 225.71875 366.75 225.332031 C 365.800781 224.941406 364.871094 224.496094 363.957031 223.992188 C 363.046875 223.492188 362.15625 222.933594 361.289062 222.324219 C 360.421875 221.714844 359.582031 221.054688 358.769531 220.34375 C 357.960938 219.632812 357.179688 218.875 356.429688 218.070312 C 355.679688 217.261719 354.960938 216.414062 354.28125 215.519531 C 353.601562 214.625 352.957031 213.695312 352.351562 212.722656 C 351.746094 211.75 351.183594 210.746094 350.660156 209.703125 C 350.136719 208.664062 349.65625 207.59375 349.222656 206.492188 C 348.785156 205.394531 348.394531 204.269531 348.046875 203.121094 C 347.703125 201.972656 347.402344 200.808594 347.152344 199.621094 C 346.902344 198.433594 346.699219 197.238281 346.542969 196.023438 C 346.386719 194.8125 346.28125 193.59375 346.226562 192.367188 C 346.167969 191.140625 346.164062 189.914062 346.203125 188.6875 C 346.246094 187.457031 346.339844 186.234375 346.480469 185.015625 C 346.621094 183.796875 346.808594 182.585938 347.046875 181.390625 C 347.28125 180.191406 347.566406 179.007812 347.898438 177.84375 C 348.230469 176.675781 348.609375 175.535156 349.035156 174.410156 C 349.457031 173.289062 349.925781 172.195312 350.433594 171.128906 C 350.945312 170.0625 351.5 169.027344 352.09375 168.023438 C 352.683594 167.023438 353.316406 166.054688 353.988281 165.128906 C 354.65625 164.199219 355.363281 163.316406 356.101562 162.472656 C 356.84375 161.625 357.617188 160.828125 358.417969 160.074219 C 359.222656 159.324219 360.054688 158.621094 360.914062 157.964844 C 361.773438 157.3125 362.65625 156.710938 363.5625 156.160156 C 364.46875 155.613281 365.394531 155.121094 366.339844 154.679688 C 367.28125 154.242188 368.242188 153.863281 369.214844 153.539062 C 370.191406 153.214844 371.175781 152.949219 372.167969 152.746094 C 373.160156 152.539062 374.160156 152.390625 375.164062 152.304688 C 376.167969 152.21875 377.175781 152.195312 378.179688 152.230469 Z M 378.179688 152.230469 " fill-opacity="1" fill-rule="nonzero"/></g></g></g><g clip-path="url(#3f195edb40)"><g clip-path="url(#6065b854f6)"><g clip-path="url(#a0b808bff0)"><path fill="#d69397" d="M 260.230469 336.816406 C 214.886719 340.839844 186.527344 311.902344 185.261719 310.578125 C 185.054688 310.335938 184.867188 310.078125 184.707031 309.796875 C 184.546875 309.519531 184.414062 309.230469 184.3125 308.925781 C 184.207031 308.625 184.128906 308.3125 184.085938 307.996094 C 184.039062 307.679688 184.023438 307.359375 184.039062 307.039062 C 184.054688 306.71875 184.097656 306.402344 184.171875 306.089844 C 184.25 305.777344 184.351562 305.476562 184.484375 305.183594 C 184.617188 304.890625 184.777344 304.613281 184.960938 304.351562 C 185.144531 304.089844 185.355469 303.847656 185.585938 303.625 C 185.816406 303.402344 186.066406 303.207031 186.335938 303.03125 C 186.605469 302.855469 186.886719 302.707031 187.183594 302.585938 C 187.480469 302.464844 187.789062 302.375 188.101562 302.3125 C 188.417969 302.25 188.734375 302.21875 189.054688 302.214844 C 189.375 302.210938 189.695312 302.242188 190.011719 302.300781 C 190.324219 302.359375 190.632812 302.445312 190.933594 302.5625 C 191.230469 302.679688 191.515625 302.824219 191.785156 302.992188 C 192.058594 303.164062 192.3125 303.359375 192.546875 303.578125 C 192.832031 303.898438 222.808594 334.253906 268.578125 325.515625 C 269.207031 325.449219 269.828125 325.5 270.4375 325.664062 C 271.050781 325.828125 271.609375 326.101562 272.117188 326.476562 C 272.625 326.855469 273.050781 327.308594 273.386719 327.84375 C 273.722656 328.378906 273.953125 328.960938 274.070312 329.582031 C 274.191406 330.203125 274.191406 330.824219 274.078125 331.445312 C 273.960938 332.070312 273.738281 332.648438 273.40625 333.1875 C 273.070312 333.726562 272.652344 334.183594 272.148438 334.5625 C 271.640625 334.945312 271.082031 335.21875 270.472656 335.390625 C 267.082031 336.035156 263.667969 336.511719 260.230469 336.816406 Z M 260.230469 336.816406 " fill-opacity="1" fill-rule="nonzero"/></g></g></g><g clip-path="url(#2ec917d46a)"><g clip-path="url(#52dfd83b85)"><g clip-path="url(#a875eb56c5)"><path fill="#bb5f66" d="M 238.414062 236.980469 C 241.707031 233.542969 245.277344 230.421875 249.125 227.621094 C 252.96875 224.816406 257.035156 222.375 261.316406 220.296875 C 265.597656 218.21875 270.03125 216.535156 274.613281 215.242188 C 279.195312 213.953125 283.855469 213.078125 288.59375 212.617188 C 312.308594 210.441406 347.621094 214.132812 372.003906 250.753906 C 410.601562 308.75 301.082031 332.285156 243.136719 300.035156 C 207.269531 280.082031 221.992188 253.960938 238.414062 236.980469 Z M 238.414062 236.980469 " fill-opacity="1" fill-rule="nonzero"/></g></g></g><g clip-path="url(#2b72163c1d)"><g clip-path="url(#48b6d44022)"><g clip-path="url(#9b4efa5a23)"><path fill="#86383f" d="M 311.65625 249.613281 C 311.652344 258.292969 315.492188 265.339844 320.222656 265.335938 C 324.957031 265.332031 328.824219 258.304688 328.871094 249.621094 C 328.917969 240.941406 325.035156 233.910156 320.300781 233.902344 C 315.566406 233.890625 311.730469 240.929688 311.65625 249.613281 Z M 311.65625 249.613281 " fill-opacity="1" fill-rule="nonzero"/></g></g></g><g clip-path="url(#d9853afada)"><g clip-path="url(#3ac0b1d99e)"><g clip-path="url(#8fb42a8a7c)"><path fill="#86383f" d="M 273.011719 249.589844 C 273.007812 258.265625 276.84375 265.300781 281.578125 265.308594 C 286.3125 265.320312 290.164062 258.277344 290.226562 249.59375 C 290.285156 240.910156 286.390625 233.871094 281.65625 233.875 C 276.925781 233.878906 273.003906 240.910156 273.011719 249.589844 Z M 273.011719 249.589844 " fill-opacity="1" fill-rule="nonzero"/></g></g></g><g clip-path="url(#4bb4218bfb)"><g clip-path="url(#767197e287)"><path fill="#232126" d="M 356.171875 160.003906 L 417.847656 160.003906 L 417.847656 234.449219 L 356.171875 234.449219 Z M 356.171875 160.003906 " fill-opacity="1" fill-rule="nonzero"/></g></g><g clip-path="url(#0e0eb73cb1)"><g clip-path="url(#35fbe1812f)"><path fill="#232126" d="M 181.988281 160.003906 L 243.664062 160.003906 L 243.664062 234.449219 L 181.988281 234.449219 Z M 181.988281 160.003906 " fill-opacity="1" fill-rule="nonzero"/></g></g><g clip-path="url(#914e41b024)"><path stroke-linecap="round" transform="matrix(0.71898, 0.211603, -0.211603, 0.71898, 200.40766, 307.835313)" fill="none" stroke-linejoin="miter" d="M 8.168432 7.990234 C 45.623677 25.12083 83.074714 25.105975 120.526545 7.944199 " stroke="#232126" stroke-width="12" stroke-opacity="1" stroke-miterlimit="4"/></g></svg>