<svg xmlns="http://www.w3.org/2000/svg" xmlns:xlink="http://www.w3.org/1999/xlink" width="1024" zoomAndPan="magnify" viewBox="0 0 768 450.749984" height="601" preserveAspectRatio="xMidYMid meet" version="1.0"><defs><clipPath id="eb9aacc424"><path d="M 0.210938 0 L 767.785156 0 L 767.785156 449.75 L 0.210938 449.75 Z M 0.210938 0 " clip-rule="nonzero"/></clipPath><clipPath id="962e769d22"><path d="M 18 346 L 55 346 L 55 376 L 18 376 Z M 18 346 " clip-rule="nonzero"/></clipPath><clipPath id="400837905e"><path d="M 18.171875 340.339844 L 54.152344 340.25 L 54.246094 375.480469 L 18.265625 375.570312 Z M 18.171875 340.339844 " clip-rule="nonzero"/></clipPath><clipPath id="0971a7dd6e"><path d="M -1.039062 338.382812 L 124.140625 338.058594 L 124.386719 432.503906 L -0.792969 432.832031 Z M -1.039062 338.382812 " clip-rule="nonzero"/></clipPath><clipPath id="d791c588af"><path d="M 42 365 L 53 365 L 53 372 L 42 372 Z M 42 365 " clip-rule="nonzero"/></clipPath><clipPath id="ed3d364c68"><path d="M 18.171875 340.339844 L 54.152344 340.25 L 54.246094 375.480469 L 18.265625 375.570312 Z M 18.171875 340.339844 " clip-rule="nonzero"/></clipPath><clipPath id="ffb84de2ef"><path d="M -1.039062 338.382812 L 124.140625 338.058594 L 124.386719 432.503906 L -0.792969 432.832031 Z M -1.039062 338.382812 " clip-rule="nonzero"/></clipPath><clipPath id="246e828226"><path d="M 19 341 L 52 341 L 52 374 L 19 374 Z M 19 341 " clip-rule="nonzero"/></clipPath><clipPath id="cf6a2fefe8"><path d="M 18.171875 340.339844 L 54.152344 340.25 L 54.246094 375.480469 L 18.265625 375.570312 Z M 18.171875 340.339844 " clip-rule="nonzero"/></clipPath><clipPath id="50d1bbe577"><path d="M -1.039062 338.382812 L 124.140625 338.058594 L 124.386719 432.503906 L -0.792969 432.832031 Z M -1.039062 338.382812 " clip-rule="nonzero"/></clipPath><clipPath id="06730e8764"><path d="M 115 346 L 152 346 L 152 376 L 115 376 Z M 115 346 " clip-rule="nonzero"/></clipPath><clipPath id="491a78f71e"><path d="M 115.191406 340.339844 L 151.171875 340.25 L 151.265625 375.480469 L 115.285156 375.570312 Z M 115.191406 340.339844 " clip-rule="nonzero"/></clipPath><clipPath id="6b6cd2943a"><path d="M 170.234375 338.191406 L 45.054688 338.515625 L 45.300781 432.960938 L 170.480469 432.636719 Z M 170.234375 338.191406 " clip-rule="nonzero"/></clipPath><clipPath id="8e37322056"><path d="M 116 365 L 128 365 L 128 372 L 116 372 Z M 116 365 " clip-rule="nonzero"/></clipPath><clipPath id="67ae40cac1"><path d="M 115.191406 340.339844 L 151.171875 340.25 L 151.265625 375.480469 L 115.285156 375.570312 Z M 115.191406 340.339844 " clip-rule="nonzero"/></clipPath><clipPath id="e19c6cf232"><path d="M 170.234375 338.191406 L 45.054688 338.515625 L 45.300781 432.960938 L 170.480469 432.636719 Z M 170.234375 338.191406 " clip-rule="nonzero"/></clipPath><clipPath id="4f67433a43"><path d="M 117 341 L 150 341 L 150 374 L 117 374 Z M 117 341 " clip-rule="nonzero"/></clipPath><clipPath id="4a186aa37f"><path d="M 115.191406 340.339844 L 151.171875 340.25 L 151.265625 375.480469 L 115.285156 375.570312 Z M 115.191406 340.339844 " clip-rule="nonzero"/></clipPath><clipPath id="d34dc34c6d"><path d="M 170.234375 338.191406 L 45.054688 338.515625 L 45.300781 432.960938 L 170.480469 432.636719 Z M 170.234375 338.191406 " clip-rule="nonzero"/></clipPath><clipPath id="26d59b5e76"><path d="M 54 362 L 71 362 L 71 372 L 54 372 Z M 54 362 " clip-rule="nonzero"/></clipPath><clipPath id="077bc6bdb0"><path d="M 54.421875 365.207031 L 70.207031 362.382812 L 71.421875 369.160156 L 55.632812 371.988281 Z M 54.421875 365.207031 " clip-rule="nonzero"/></clipPath><clipPath id="ea5e88fe66"><path d="M 66.804688 362.988281 C 68.679688 362.65625 70.46875 363.902344 70.804688 365.773438 C 71.136719 367.644531 69.890625 369.4375 68.019531 369.769531 L 59.023438 371.378906 C 57.152344 371.714844 55.363281 370.46875 55.027344 368.597656 C 54.691406 366.722656 55.9375 364.933594 57.8125 364.601562 Z M 66.804688 362.988281 " clip-rule="nonzero"/></clipPath><clipPath id="c2e0d0dd3b"><path d="M 98 362 L 115 362 L 115 372 L 98 372 Z M 98 362 " clip-rule="nonzero"/></clipPath><clipPath id="df7e4ddb52"><path d="M 99.128906 362.382812 L 114.894531 365.324219 L 113.632812 372.09375 L 97.867188 369.15625 Z M 99.128906 362.382812 " clip-rule="nonzero"/></clipPath><clipPath id="8f34066548"><path d="M 111.5 364.6875 C 113.367188 365.039062 114.601562 366.835938 114.253906 368.707031 C 113.90625 370.578125 112.105469 371.808594 110.234375 371.460938 L 101.253906 369.785156 C 99.382812 369.4375 98.148438 367.640625 98.5 365.769531 C 98.847656 363.898438 100.644531 362.667969 102.515625 363.015625 Z M 111.5 364.6875 " clip-rule="nonzero"/></clipPath><clipPath id="4f6d7a4a06"><path d="M 110.8125 392.277344 L 130.09375 392.277344 L 130.09375 406.261719 L 110.8125 406.261719 Z M 110.8125 392.277344 " clip-rule="nonzero"/></clipPath><clipPath id="3efa8f87a6"><path d="M 120.429688 392.277344 C 115.117188 392.277344 110.8125 395.40625 110.8125 399.269531 C 110.8125 403.128906 115.117188 406.261719 120.429688 406.261719 C 125.746094 406.261719 130.050781 403.128906 130.050781 399.269531 C 130.050781 395.40625 125.746094 392.277344 120.429688 392.277344 Z M 120.429688 392.277344 " clip-rule="nonzero"/></clipPath><clipPath id="db334f79bf"><path d="M 39.253906 392.277344 L 58.535156 392.277344 L 58.535156 406.261719 L 39.253906 406.261719 Z M 39.253906 392.277344 " clip-rule="nonzero"/></clipPath><clipPath id="4390782254"><path d="M 48.875 392.277344 C 43.5625 392.277344 39.253906 395.40625 39.253906 399.269531 C 39.253906 403.128906 43.5625 406.261719 48.875 406.261719 C 54.1875 406.261719 58.496094 403.128906 58.496094 399.269531 C 58.496094 395.40625 54.1875 392.277344 48.875 392.277344 Z M 48.875 392.277344 " clip-rule="nonzero"/></clipPath><clipPath id="c0bcc5a79e"><path d="M 66 385 L 104 385 L 104 412 L 66 412 Z M 66 385 " clip-rule="nonzero"/></clipPath><clipPath id="b165352b57"><path d="M 66.066406 388.707031 L 101.160156 385.589844 L 103.214844 408.738281 L 68.121094 411.851562 Z M 66.066406 388.707031 " clip-rule="nonzero"/></clipPath><clipPath id="5be394a211"><path d="M 2.050781 323.347656 L 160.34375 309.292969 L 170.878906 428.011719 L 12.589844 442.0625 Z M 2.050781 323.347656 " clip-rule="nonzero"/></clipPath><clipPath id="f4a91e83f9"><path d="M 66 385 L 75 385 L 75 392 L 66 392 Z M 66 385 " clip-rule="nonzero"/></clipPath><clipPath id="91c12061c1"><path d="M 66.066406 388.707031 L 101.160156 385.589844 L 103.214844 408.738281 L 68.121094 411.851562 Z M 66.066406 388.707031 " clip-rule="nonzero"/></clipPath><clipPath id="59c5afd67d"><path d="M 2.050781 323.347656 L 160.34375 309.292969 L 170.878906 428.011719 L 12.589844 442.0625 Z M 2.050781 323.347656 " clip-rule="nonzero"/></clipPath><clipPath id="5909464872"><path d="M 94 385 L 104 385 L 104 391 L 94 391 Z M 94 385 " clip-rule="nonzero"/></clipPath><clipPath id="8a6da013f5"><path d="M 66.066406 388.707031 L 101.160156 385.589844 L 103.214844 408.738281 L 68.121094 411.851562 Z M 66.066406 388.707031 " clip-rule="nonzero"/></clipPath><clipPath id="02799e5294"><path d="M 2.050781 323.347656 L 160.34375 309.292969 L 170.878906 428.011719 L 12.589844 442.0625 Z M 2.050781 323.347656 " clip-rule="nonzero"/></clipPath><clipPath id="845782d8fd"><path d="M 66 407 L 79 407 L 79 412 L 66 412 Z M 66 407 " clip-rule="nonzero"/></clipPath><clipPath id="aaeb176e3b"><path d="M 66.066406 388.707031 L 101.160156 385.589844 L 103.214844 408.738281 L 68.121094 411.851562 Z M 66.066406 388.707031 " clip-rule="nonzero"/></clipPath><clipPath id="022a20255a"><path d="M 2.050781 323.347656 L 160.34375 309.292969 L 170.878906 428.011719 L 12.589844 442.0625 Z M 2.050781 323.347656 " clip-rule="nonzero"/></clipPath><clipPath id="bde7b43e7d"><path d="M 67 387 L 103 387 L 103 411 L 67 411 Z M 67 387 " clip-rule="nonzero"/></clipPath><clipPath id="17bd760ad9"><path d="M 66.066406 388.707031 L 101.160156 385.589844 L 103.214844 408.738281 L 68.121094 411.851562 Z M 66.066406 388.707031 " clip-rule="nonzero"/></clipPath><clipPath id="8c8671838f"><path d="M 2.050781 323.347656 L 160.34375 309.292969 L 170.878906 428.011719 L 12.589844 442.0625 Z M 2.050781 323.347656 " clip-rule="nonzero"/></clipPath><clipPath id="a33905e945"><path d="M 87 392 L 92 392 L 92 400 L 87 400 Z M 87 392 " clip-rule="nonzero"/></clipPath><clipPath id="4824a21821"><path d="M 66.066406 388.707031 L 101.160156 385.589844 L 103.214844 408.738281 L 68.121094 411.851562 Z M 66.066406 388.707031 " clip-rule="nonzero"/></clipPath><clipPath id="e9f14c4c89"><path d="M 2.050781 323.347656 L 160.34375 309.292969 L 170.878906 428.011719 L 12.589844 442.0625 Z M 2.050781 323.347656 " clip-rule="nonzero"/></clipPath><clipPath id="7613b14fcc"><path d="M 78 392 L 83 392 L 83 400 L 78 400 Z M 78 392 " clip-rule="nonzero"/></clipPath><clipPath id="86b61e0091"><path d="M 66.066406 388.707031 L 101.160156 385.589844 L 103.214844 408.738281 L 68.121094 411.851562 Z M 66.066406 388.707031 " clip-rule="nonzero"/></clipPath><clipPath id="dc60e426c3"><path d="M 2.050781 323.347656 L 160.34375 309.292969 L 170.878906 428.011719 L 12.589844 442.0625 Z M 2.050781 323.347656 " clip-rule="nonzero"/></clipPath><clipPath id="a79d07a18f"><path d="M 97.128906 375.738281 L 110.8125 375.738281 L 110.8125 392.304688 L 97.128906 392.304688 Z M 97.128906 375.738281 " clip-rule="nonzero"/></clipPath><clipPath id="d8dbac5659"><path d="M 103.972656 375.738281 C 100.191406 375.738281 97.128906 379.441406 97.128906 384.007812 C 97.128906 388.574219 100.191406 392.277344 103.972656 392.277344 C 107.75 392.277344 110.8125 388.574219 110.8125 384.007812 C 110.8125 379.441406 107.75 375.738281 103.972656 375.738281 Z M 103.972656 375.738281 " clip-rule="nonzero"/></clipPath><clipPath id="6a85e265d6"><path d="M 58.496094 375.738281 L 72.175781 375.738281 L 72.175781 392.304688 L 58.496094 392.304688 Z M 58.496094 375.738281 " clip-rule="nonzero"/></clipPath><clipPath id="2d9c7b6c06"><path d="M 65.335938 375.738281 C 61.558594 375.738281 58.496094 379.441406 58.496094 384.007812 C 58.496094 388.574219 61.558594 392.277344 65.335938 392.277344 C 69.113281 392.277344 72.175781 388.574219 72.175781 384.007812 C 72.175781 379.441406 69.113281 375.738281 65.335938 375.738281 Z M 65.335938 375.738281 " clip-rule="nonzero"/></clipPath><clipPath id="e709cfb6d7"><path d="M 18.171875 281.40625 L 149.351562 281.40625 L 149.351562 360.113281 L 18.171875 360.113281 Z M 18.171875 281.40625 " clip-rule="nonzero"/></clipPath><clipPath id="e5ff19c7b0"><path d="M 75 281.40625 L 92 281.40625 L 92 291 L 75 291 Z M 75 281.40625 " clip-rule="nonzero"/></clipPath><clipPath id="e5d26f83e9"><path d="M 18.171875 329 L 149.351562 329 L 149.351562 360.113281 L 18.171875 360.113281 Z M 18.171875 329 " clip-rule="nonzero"/></clipPath><clipPath id="ae958c4f8c"><path d="M 18.171875 329 L 140 329 L 140 360.113281 L 18.171875 360.113281 Z M 18.171875 329 " clip-rule="nonzero"/></clipPath><clipPath id="cb1b19c79c"><path d="M 31.21875 421.273438 L 138.40625 421.273438 L 138.40625 449.757812 L 31.21875 449.757812 Z M 31.21875 421.273438 " clip-rule="nonzero"/></clipPath><clipPath id="35a5d33a7a"><path d="M 39 420 L 62 420 L 62 442 L 39 442 Z M 39 420 " clip-rule="nonzero"/></clipPath><clipPath id="f9dfc4f3e0"><path d="M 36.285156 430.503906 L 54.59375 417.527344 L 64.628906 431.6875 L 46.320312 444.664062 Z M 36.285156 430.503906 " clip-rule="nonzero"/></clipPath><clipPath id="8f28e71018"><path d="M 47.488281 422.566406 C 51.398438 419.792969 56.8125 420.71875 59.585938 424.628906 C 62.355469 428.535156 61.433594 433.953125 57.523438 436.722656 L 53.402344 439.644531 C 49.492188 442.417969 44.074219 441.492188 41.304688 437.582031 C 38.53125 433.675781 39.457031 428.257812 43.367188 425.488281 Z M 47.488281 422.566406 " clip-rule="nonzero"/></clipPath><clipPath id="a936ecc443"><path d="M 108 420 L 130 420 L 130 442 L 108 442 Z M 108 420 " clip-rule="nonzero"/></clipPath><clipPath id="d066a2accd"><path d="M 114.601562 417.546875 L 133.046875 430.328125 L 123.160156 444.59375 L 104.714844 431.8125 Z M 114.601562 417.546875 " clip-rule="nonzero"/></clipPath><clipPath id="5469f18d21"><path d="M 125.886719 425.367188 C 129.824219 428.097656 130.804688 433.503906 128.078125 437.441406 C 125.347656 441.382812 119.941406 442.363281 116 439.632812 L 111.847656 436.753906 C 107.910156 434.027344 106.929688 428.621094 109.660156 424.679688 C 112.386719 420.742188 117.792969 419.761719 121.734375 422.492188 Z M 125.886719 425.367188 " clip-rule="nonzero"/></clipPath></defs><g clip-path="url(#eb9aacc424)"><path fill="#d69397" d="M 0.210938 0 L 767.949219 0 L 767.949219 449.75 L 0.210938 449.75 Z M 0.210938 0 " fill-opacity="1" fill-rule="nonzero"/></g><g clip-path="url(#962e769d22)"><g clip-path="url(#400837905e)"><g clip-path="url(#0971a7dd6e)"><path fill="#d69397" d="M 114.292969 399.347656 C 113.984375 406.4375 111.898438 413.464844 107.285156 419.785156 C 106.347656 421.066406 105.285156 422.238281 104.097656 423.296875 C 102.859375 424.398438 101.539062 425.382812 100.125 426.25 C 98.820312 425.546875 97.769531 424.570312 96.976562 423.316406 L 25.632812 423.5 C 25.347656 423.980469 25.015625 424.425781 24.632812 424.832031 C 23.753906 424.402344 22.90625 423.964844 22.097656 423.511719 C 18.160156 421.3125 15.117188 418.847656 13.332031 416.175781 C 9.347656 410.238281 7.421875 405.207031 6.988281 400.398438 C 6.160156 391.078125 10.917969 382.574219 17.167969 369.886719 C 17.289062 369.636719 17.417969 369.40625 17.53125 369.171875 C 18.3125 367.644531 19.183594 366.171875 20.152344 364.753906 C 21.914062 362.183594 23.9375 359.84375 26.21875 357.722656 C 28.503906 355.605469 30.992188 353.765625 33.683594 352.203125 C 36.375 350.640625 39.207031 349.394531 42.179688 348.460938 C 45.152344 347.527344 48.1875 346.9375 51.292969 346.679688 C 52.46875 346.578125 53.660156 346.53125 54.851562 346.527344 C 62.234375 346.53125 71.96875 347.023438 80.472656 349.074219 C 85.644531 350.308594 90.367188 352.136719 93.816406 354.773438 C 98.566406 358.402344 103.449219 364.289062 107.261719 371.363281 C 111.738281 379.636719 114.714844 389.558594 114.292969 399.347656 Z M 114.292969 399.347656 " fill-opacity="1" fill-rule="nonzero"/></g></g></g><g clip-path="url(#d791c588af)"><g clip-path="url(#ed3d364c68)"><g clip-path="url(#ffb84de2ef)"><path fill="#d69397" d="M 52.863281 367.628906 C 52.914062 368.003906 52.894531 368.371094 52.800781 368.738281 C 52.707031 369.101562 52.546875 369.433594 52.320312 369.734375 C 52.09375 370.035156 51.816406 370.28125 51.492188 370.472656 C 51.167969 370.660156 50.820312 370.785156 50.445312 370.835938 L 45.265625 371.5625 C 44.894531 371.613281 44.527344 371.59375 44.160156 371.5 C 43.796875 371.402344 43.464844 371.242188 43.164062 371.015625 C 42.863281 370.789062 42.617188 370.515625 42.429688 370.191406 C 42.238281 369.867188 42.113281 369.519531 42.0625 369.144531 C 42.011719 368.773438 42.03125 368.402344 42.125 368.039062 C 42.21875 367.675781 42.378906 367.34375 42.605469 367.042969 C 42.832031 366.742188 43.109375 366.496094 43.433594 366.304688 C 43.757812 366.113281 44.105469 365.992188 44.480469 365.941406 L 46.996094 365.585938 L 49.65625 365.203125 C 50.03125 365.152344 50.402344 365.171875 50.765625 365.265625 C 51.128906 365.363281 51.464844 365.523438 51.765625 365.75 C 52.066406 365.980469 52.3125 366.253906 52.5 366.582031 C 52.691406 366.90625 52.8125 367.257812 52.863281 367.628906 Z M 52.863281 367.628906 " fill-opacity="1" fill-rule="nonzero"/></g></g></g><g clip-path="url(#246e828226)"><g clip-path="url(#cf6a2fefe8)"><g clip-path="url(#50d1bbe577)"><path fill="#bb5f66" d="M 51.324219 346.699219 C 51.324219 346.699219 42.863281 338.269531 32.507812 343.882812 C 32.507812 343.882812 19.832031 344.070312 19.789062 360.597656 C 19.746094 377.128906 35.703125 377.636719 42.164062 364.9375 C 48.625 352.238281 46.742188 349.308594 51.324219 346.699219 Z M 51.324219 346.699219 " fill-opacity="1" fill-rule="nonzero"/></g></g></g><g clip-path="url(#06730e8764)"><g clip-path="url(#491a78f71e)"><g clip-path="url(#6b6cd2943a)"><path fill="#d69397" d="M 55.222656 399.753906 C 55.566406 406.839844 57.691406 413.859375 62.332031 420.15625 C 63.28125 421.433594 64.347656 422.597656 65.539062 423.648438 C 66.78125 424.746094 68.113281 425.722656 69.527344 426.582031 C 70.832031 425.871094 71.875 424.890625 72.664062 423.632812 L 144.007812 423.445312 C 144.292969 423.925781 144.628906 424.367188 145.011719 424.773438 C 145.890625 424.335938 146.734375 423.894531 147.542969 423.4375 C 151.46875 421.21875 154.496094 418.738281 156.265625 416.054688 C 160.222656 410.101562 162.121094 405.058594 162.527344 400.246094 C 163.308594 390.917969 158.507812 382.441406 152.191406 369.785156 C 152.070312 369.535156 151.9375 369.308594 151.824219 369.074219 C 151.035156 367.550781 150.15625 366.082031 149.179688 364.667969 C 147.40625 362.109375 145.371094 359.777344 143.078125 357.671875 C 140.78125 355.566406 138.285156 353.738281 135.585938 352.191406 C 132.882812 350.640625 130.042969 349.410156 127.070312 348.492188 C 124.09375 347.578125 121.050781 347 117.949219 346.757812 C 116.769531 346.664062 115.578125 346.621094 114.386719 346.625 C 107.003906 346.667969 97.273438 347.210938 88.777344 349.304688 C 83.613281 350.566406 78.902344 352.417969 75.464844 355.074219 C 70.734375 358.726562 65.878906 364.636719 62.109375 371.734375 C 57.671875 380.03125 54.746094 389.96875 55.222656 399.753906 Z M 55.222656 399.753906 " fill-opacity="1" fill-rule="nonzero"/></g></g></g><g clip-path="url(#8e37322056)"><g clip-path="url(#67ae40cac1)"><g clip-path="url(#e19c6cf232)"><path fill="#d69397" d="M 116.484375 367.71875 C 116.433594 368.089844 116.457031 368.460938 116.554688 368.824219 C 116.648438 369.1875 116.8125 369.519531 117.039062 369.816406 C 117.269531 370.117188 117.546875 370.363281 117.871094 370.550781 C 118.195312 370.738281 118.546875 370.859375 118.917969 370.910156 L 124.101562 371.609375 C 124.472656 371.660156 124.84375 371.636719 125.207031 371.539062 C 125.570312 371.441406 125.902344 371.28125 126.199219 371.054688 C 126.5 370.824219 126.742188 370.546875 126.933594 370.222656 C 127.121094 369.898438 127.242188 369.550781 127.292969 369.175781 C 127.34375 368.804688 127.320312 368.433594 127.222656 368.070312 C 127.128906 367.707031 126.964844 367.375 126.738281 367.074219 C 126.507812 366.777344 126.234375 366.53125 125.90625 366.34375 C 125.582031 366.152344 125.234375 366.035156 124.859375 365.984375 L 122.339844 365.644531 L 119.675781 365.273438 C 119.304688 365.222656 118.933594 365.246094 118.570312 365.34375 C 118.207031 365.441406 117.875 365.601562 117.574219 365.832031 C 117.273438 366.0625 117.03125 366.339844 116.839844 366.667969 C 116.652344 366.992188 116.535156 367.34375 116.484375 367.71875 Z M 116.484375 367.71875 " fill-opacity="1" fill-rule="nonzero"/></g></g></g><g clip-path="url(#4f67433a43)"><g clip-path="url(#4a186aa37f)"><g clip-path="url(#d34dc34c6d)"><path fill="#bb5f66" d="M 117.914062 346.78125 C 117.914062 346.78125 126.332031 338.308594 136.714844 343.863281 C 136.714844 343.863281 149.394531 343.984375 149.519531 360.515625 C 149.648438 377.042969 133.695312 377.636719 127.167969 364.96875 C 120.640625 352.304688 122.507812 349.367188 117.914062 346.78125 Z M 117.914062 346.78125 " fill-opacity="1" fill-rule="nonzero"/></g></g></g><g clip-path="url(#26d59b5e76)"><g clip-path="url(#077bc6bdb0)"><g clip-path="url(#ea5e88fe66)"><path fill="#232126" d="M 54.421875 365.207031 L 70.207031 362.382812 L 71.421875 369.160156 L 55.632812 371.988281 Z M 54.421875 365.207031 " fill-opacity="1" fill-rule="nonzero"/></g></g></g><g clip-path="url(#c2e0d0dd3b)"><g clip-path="url(#df7e4ddb52)"><g clip-path="url(#8f34066548)"><path fill="#232126" d="M 99.128906 362.382812 L 114.894531 365.324219 L 113.632812 372.09375 L 97.867188 369.15625 Z M 99.128906 362.382812 " fill-opacity="1" fill-rule="nonzero"/></g></g></g><g clip-path="url(#4f6d7a4a06)"><g clip-path="url(#3efa8f87a6)"><path fill="#bb5f66" d="M 110.8125 392.277344 L 130.039062 392.277344 L 130.039062 406.261719 L 110.8125 406.261719 Z M 110.8125 392.277344 " fill-opacity="1" fill-rule="nonzero"/></g></g><g clip-path="url(#db334f79bf)"><g clip-path="url(#4390782254)"><path fill="#bb5f66" d="M 39.253906 392.277344 L 58.480469 392.277344 L 58.480469 406.261719 L 39.253906 406.261719 Z M 39.253906 392.277344 " fill-opacity="1" fill-rule="nonzero"/></g></g><g clip-path="url(#c0bcc5a79e)"><g clip-path="url(#b165352b57)"><g clip-path="url(#5be394a211)"><path fill="#d69397" d="M 154.191406 387.730469 C 154.574219 396.707031 152.703125 405.800781 147.574219 414.277344 C 146.527344 415.996094 145.3125 417.589844 143.929688 419.054688 C 142.492188 420.578125 140.929688 421.964844 139.242188 423.207031 C 137.515625 422.464844 136.085938 421.347656 134.945312 419.851562 L 44.953125 427.839844 C 44.648438 428.476562 44.277344 429.074219 43.839844 429.628906 C 42.679688 429.179688 41.5625 428.71875 40.492188 428.238281 C 35.285156 425.890625 31.183594 423.113281 28.640625 419.933594 C 22.96875 412.878906 19.992188 406.738281 18.921875 400.71875 C 16.863281 389.046875 21.941406 377.800781 28.449219 361.113281 C 28.570312 360.785156 28.710938 360.484375 28.828125 360.171875 C 29.644531 358.160156 30.589844 356.207031 31.65625 354.3125 C 32.625 352.601562 33.683594 350.949219 34.835938 349.359375 C 35.988281 347.765625 37.222656 346.242188 38.546875 344.785156 C 39.867188 343.332031 41.265625 341.953125 42.738281 340.652344 C 44.210938 339.351562 45.753906 338.136719 47.363281 337.007812 C 48.972656 335.878906 50.636719 334.84375 52.363281 333.898438 C 54.085938 332.957031 55.859375 332.109375 57.675781 331.363281 C 59.492188 330.617188 61.347656 329.972656 63.238281 329.429688 C 65.125 328.890625 67.039062 328.457031 68.976562 328.125 C 70.453125 327.867188 71.949219 327.679688 73.453125 327.546875 C 82.769531 326.75 95.105469 326.3125 106.054688 327.972656 C 112.71875 328.972656 118.871094 330.765625 123.511719 333.714844 C 129.902344 337.777344 136.703125 344.671875 142.277344 353.183594 C 148.828125 363.136719 153.660156 375.332031 154.191406 387.730469 Z M 154.191406 387.730469 " fill-opacity="1" fill-rule="nonzero"/></g></g></g><g clip-path="url(#f4a91e83f9)"><g clip-path="url(#91c12061c1)"><g clip-path="url(#59c5afd67d)"><path fill="#d69397" d="M 67.585938 375.042969 C 68.035156 375.058594 68.472656 375.125 68.910156 375.246094 C 69.34375 375.367188 69.765625 375.542969 70.167969 375.765625 C 70.574219 375.988281 70.957031 376.257812 71.320312 376.574219 C 71.679688 376.890625 72.011719 377.246094 72.316406 377.644531 C 72.617188 378.039062 72.886719 378.472656 73.117188 378.933594 C 73.351562 379.398438 73.542969 379.882812 73.699219 380.394531 C 73.851562 380.90625 73.964844 381.429688 74.03125 381.96875 C 74.101562 382.507812 74.125 383.050781 74.105469 383.597656 C 74.089844 384.140625 74.027344 384.683594 73.921875 385.214844 C 73.816406 385.746094 73.667969 386.261719 73.480469 386.761719 C 73.292969 387.261719 73.066406 387.734375 72.800781 388.179688 C 72.539062 388.625 72.242188 389.035156 71.910156 389.410156 C 71.582031 389.785156 71.226562 390.121094 70.84375 390.410156 C 70.460938 390.699219 70.0625 390.945312 69.640625 391.136719 C 69.222656 391.332031 68.789062 391.476562 68.347656 391.566406 C 67.90625 391.660156 67.460938 391.699219 67.015625 391.683594 C 66.566406 391.667969 66.128906 391.597656 65.691406 391.476562 C 65.257812 391.355469 64.835938 391.183594 64.433594 390.960938 C 64.027344 390.738281 63.644531 390.464844 63.28125 390.152344 C 62.921875 389.835938 62.589844 389.476562 62.285156 389.082031 C 61.984375 388.683594 61.714844 388.253906 61.484375 387.789062 C 61.25 387.328125 61.058594 386.839844 60.902344 386.332031 C 60.75 385.820312 60.636719 385.292969 60.570312 384.757812 C 60.5 384.21875 60.476562 383.675781 60.496094 383.128906 C 60.511719 382.582031 60.574219 382.042969 60.679688 381.507812 C 60.785156 380.976562 60.933594 380.460938 61.121094 379.960938 C 61.308594 379.464844 61.535156 378.992188 61.800781 378.546875 C 62.0625 378.097656 62.359375 377.6875 62.691406 377.3125 C 63.019531 376.9375 63.375 376.605469 63.757812 376.3125 C 64.140625 376.023438 64.539062 375.78125 64.960938 375.585938 C 65.378906 375.390625 65.8125 375.246094 66.253906 375.15625 C 66.695312 375.0625 67.140625 375.027344 67.585938 375.042969 Z M 67.585938 375.042969 " fill-opacity="1" fill-rule="nonzero"/></g></g></g><g clip-path="url(#5909464872)"><g clip-path="url(#8a6da013f5)"><g clip-path="url(#02799e5294)"><path fill="#d69397" d="M 102.007812 374.015625 C 102.457031 374.03125 102.898438 374.097656 103.332031 374.21875 C 103.765625 374.34375 104.1875 374.515625 104.59375 374.738281 C 104.996094 374.960938 105.382812 375.230469 105.742188 375.546875 C 106.105469 375.863281 106.4375 376.21875 106.738281 376.617188 C 107.042969 377.015625 107.308594 377.445312 107.542969 377.90625 C 107.773438 378.371094 107.96875 378.855469 108.121094 379.367188 C 108.273438 379.878906 108.386719 380.402344 108.453125 380.941406 C 108.523438 381.480469 108.546875 382.023438 108.53125 382.570312 C 108.511719 383.117188 108.449219 383.65625 108.34375 384.1875 C 108.238281 384.71875 108.089844 385.238281 107.902344 385.734375 C 107.714844 386.234375 107.488281 386.707031 107.222656 387.152344 C 106.960938 387.597656 106.664062 388.007812 106.335938 388.382812 C 106.003906 388.757812 105.648438 389.09375 105.265625 389.382812 C 104.886719 389.675781 104.484375 389.917969 104.0625 390.113281 C 103.644531 390.308594 103.214844 390.449219 102.769531 390.542969 C 102.328125 390.632812 101.882812 390.671875 101.4375 390.65625 C 100.992188 390.640625 100.550781 390.570312 100.113281 390.449219 C 99.679688 390.328125 99.261719 390.15625 98.855469 389.933594 C 98.449219 389.710938 98.066406 389.441406 97.703125 389.125 C 97.34375 388.808594 97.011719 388.449219 96.707031 388.054688 C 96.40625 387.65625 96.136719 387.226562 95.90625 386.761719 C 95.671875 386.300781 95.480469 385.8125 95.324219 385.304688 C 95.171875 384.792969 95.0625 384.269531 94.992188 383.730469 C 94.921875 383.191406 94.898438 382.648438 94.917969 382.101562 C 94.9375 381.554688 94.996094 381.015625 95.101562 380.484375 C 95.207031 379.949219 95.355469 379.433594 95.542969 378.933594 C 95.734375 378.4375 95.957031 377.964844 96.222656 377.519531 C 96.488281 377.074219 96.78125 376.660156 97.113281 376.285156 C 97.441406 375.910156 97.796875 375.578125 98.179688 375.289062 C 98.5625 374.996094 98.960938 374.753906 99.382812 374.558594 C 99.800781 374.363281 100.234375 374.21875 100.675781 374.128906 C 101.117188 374.039062 101.5625 374 102.007812 374.015625 Z M 102.007812 374.015625 " fill-opacity="1" fill-rule="nonzero"/></g></g></g><g clip-path="url(#845782d8fd)"><g clip-path="url(#aaeb176e3b)"><g clip-path="url(#022a20255a)"><path fill="#d69397" d="M 75.847656 414.957031 C 65.789062 415.851562 59.5 409.433594 59.21875 409.140625 C 59.023438 408.914062 58.933594 408.652344 58.945312 408.355469 C 58.960938 408.054688 59.074219 407.804688 59.289062 407.597656 C 59.503906 407.390625 59.761719 407.285156 60.058594 407.285156 C 60.355469 407.28125 60.617188 407.382812 60.832031 407.585938 C 60.898438 407.65625 67.546875 414.390625 77.699219 412.453125 C 77.988281 412.421875 78.25 412.492188 78.484375 412.664062 C 78.71875 412.839844 78.863281 413.066406 78.917969 413.355469 C 78.972656 413.640625 78.921875 413.90625 78.769531 414.152344 C 78.617188 414.402344 78.398438 414.5625 78.117188 414.640625 C 77.367188 414.785156 76.609375 414.890625 75.847656 414.957031 Z M 75.847656 414.957031 " fill-opacity="1" fill-rule="nonzero"/></g></g></g><g clip-path="url(#bde7b43e7d)"><g clip-path="url(#17bd760ad9)"><g clip-path="url(#8c8671838f)"><path fill="#bb5f66" d="M 71.007812 392.8125 C 72.480469 391.277344 74.171875 390.042969 76.085938 389.113281 C 78.003906 388.183594 80.019531 387.617188 82.136719 387.410156 C 87.398438 386.925781 95.230469 387.746094 100.640625 395.871094 C 109.199219 408.734375 84.90625 413.953125 72.054688 406.800781 C 64.097656 402.375 67.363281 396.578125 71.007812 392.8125 Z M 71.007812 392.8125 " fill-opacity="1" fill-rule="nonzero"/></g></g></g><g clip-path="url(#a33905e945)"><g clip-path="url(#4824a21821)"><g clip-path="url(#e9f14c4c89)"><path fill="#86383f" d="M 87.253906 395.617188 C 87.253906 397.542969 88.105469 399.105469 89.152344 399.101562 C 90.203125 399.101562 91.0625 397.542969 91.070312 395.617188 C 91.082031 393.691406 90.222656 392.132812 89.171875 392.128906 C 88.121094 392.128906 87.269531 393.691406 87.253906 395.617188 Z M 87.253906 395.617188 " fill-opacity="1" fill-rule="nonzero"/></g></g></g><g clip-path="url(#7613b14fcc)"><g clip-path="url(#86b61e0091)"><g clip-path="url(#dc60e426c3)"><path fill="#86383f" d="M 78.683594 395.609375 C 78.679688 397.535156 79.53125 399.09375 80.582031 399.097656 C 81.632812 399.101562 82.488281 397.539062 82.5 395.613281 C 82.511719 393.6875 81.648438 392.125 80.597656 392.125 C 79.550781 392.125 78.679688 393.6875 78.683594 395.609375 Z M 78.683594 395.609375 " fill-opacity="1" fill-rule="nonzero"/></g></g></g><g clip-path="url(#a79d07a18f)"><g clip-path="url(#d8dbac5659)"><path fill="#232126" d="M 97.128906 375.738281 L 110.8125 375.738281 L 110.8125 392.253906 L 97.128906 392.253906 Z M 97.128906 375.738281 " fill-opacity="1" fill-rule="nonzero"/></g></g><g clip-path="url(#6a85e265d6)"><g clip-path="url(#2d9c7b6c06)"><path fill="#232126" d="M 58.496094 375.738281 L 72.175781 375.738281 L 72.175781 392.253906 L 58.496094 392.253906 Z M 58.496094 375.738281 " fill-opacity="1" fill-rule="nonzero"/></g></g><path stroke-linecap="round" transform="matrix(0.719088, 0.211634, -0.211634, 0.719088, 62.556552, 408.405542)" fill="none" stroke-linejoin="miter" d="M 2.11566 2.029254 C 10.296026 5.700358 18.472211 5.684209 26.650686 1.984334 " stroke="#232126" stroke-width="3" stroke-opacity="1" stroke-miterlimit="4"/><g clip-path="url(#e709cfb6d7)"><path fill="#efcfb1" d="M 146.644531 341.277344 L 125.976562 329.542969 C 121.285156 330.890625 118 330.476562 118.507812 325.304688 L 117.269531 319.132812 L 91.890625 290.386719 C 91.890625 290.386719 89.640625 281.40625 83.761719 281.40625 C 77.882812 281.40625 75.632812 290.386719 75.632812 290.386719 L 50.253906 319.132812 L 49.015625 325.304688 C 48.605469 328.394531 45.5625 329.359375 41.546875 329.542969 L 20.878906 341.277344 C 20.042969 341.75 19.367188 342.433594 18.902344 343.230469 C 18.4375 344.035156 18.175781 344.960938 18.175781 345.921875 C 18.175781 347.929688 19.308594 349.765625 21.09375 350.679688 C 27.273438 353.84375 44.472656 360.113281 83.761719 360.113281 C 123.050781 360.113281 140.25 353.84375 146.429688 350.679688 C 147.324219 350.222656 148.054688 349.535156 148.558594 348.710938 C 149.0625 347.886719 149.347656 346.925781 149.347656 345.921875 C 149.347656 344 148.316406 342.226562 146.644531 341.277344 Z M 79.699219 289.683594 C 79.699219 289.683594 80.066406 285.234375 83.761719 285.234375 C 87.457031 285.234375 87.828125 289.683594 87.828125 289.683594 Z M 79.699219 289.683594 " fill-opacity="1" fill-rule="nonzero"/></g><path fill="#604533" d="M 107.535156 308.808594 C 108.917969 308.808594 110.035156 309.933594 110.035156 311.316406 C 110.035156 312.703125 108.917969 313.828125 107.535156 313.828125 C 106.152344 313.828125 105.03125 312.703125 105.03125 311.316406 C 105.03125 309.933594 106.152344 308.808594 107.535156 308.808594 Z M 107.535156 308.808594 " fill-opacity="1" fill-rule="nonzero"/><path fill="#604533" d="M 83.761719 311.136719 C 85.144531 311.136719 86.265625 312.257812 86.265625 313.644531 C 86.265625 315.027344 85.144531 316.152344 83.761719 316.152344 C 82.378906 316.152344 81.257812 315.027344 81.257812 313.644531 C 81.257812 312.257812 82.378906 311.136719 83.761719 311.136719 Z M 83.761719 311.136719 " fill-opacity="1" fill-rule="nonzero"/><path fill="#604533" d="M 59.992188 308.808594 C 61.375 308.808594 62.496094 309.933594 62.496094 311.316406 C 62.496094 312.703125 61.375 313.828125 59.992188 313.828125 C 58.605469 313.828125 57.488281 312.703125 57.488281 311.316406 C 57.488281 309.933594 58.605469 308.808594 59.992188 308.808594 Z M 59.992188 308.808594 " fill-opacity="1" fill-rule="nonzero"/><path fill="#c19b7a" d="M 79.699219 289.683594 C 80.113281 289.640625 80.535156 289.601562 80.964844 289.570312 C 70.832031 295.332031 67.007812 313.734375 67.007812 324.089844 L 67.007812 324.09375 C 55.488281 322.296875 50.253906 319.132812 50.253906 319.132812 C 52.597656 310.214844 59.035156 294.359375 75.632812 290.386719 C 76.925781 290.078125 78.28125 289.839844 79.699219 289.683594 Z M 62.496094 311.316406 C 62.496094 309.933594 61.375 308.808594 59.992188 308.808594 C 58.605469 308.808594 57.488281 309.933594 57.488281 311.316406 C 57.488281 312.703125 58.605469 313.828125 59.992188 313.828125 C 61.375 313.828125 62.496094 312.703125 62.496094 311.316406 Z M 62.496094 311.316406 " fill-opacity="1" fill-rule="nonzero"/><path fill="#c19b7a" d="M 87.828125 289.683594 C 89.246094 289.839844 90.597656 290.078125 91.890625 290.386719 C 108.488281 294.359375 114.925781 310.214844 117.269531 319.132812 C 117.269531 319.132812 112.039062 322.296875 100.515625 324.09375 L 100.515625 324.089844 C 100.515625 313.734375 96.695312 295.332031 86.558594 289.570312 C 86.988281 289.601562 87.410156 289.640625 87.828125 289.683594 Z M 110.035156 311.316406 C 110.035156 309.933594 108.917969 308.808594 107.535156 308.808594 C 106.152344 308.808594 105.03125 309.933594 105.03125 311.316406 C 105.03125 312.703125 106.152344 313.828125 107.535156 313.828125 C 108.917969 313.828125 110.035156 312.703125 110.035156 311.316406 Z M 110.035156 311.316406 " fill-opacity="1" fill-rule="nonzero"/><path fill="#d1af8f" d="M 100.515625 324.089844 L 100.515625 324.09375 C 95.941406 324.804688 90.382812 325.304688 83.761719 325.304688 C 77.144531 325.304688 71.582031 324.804688 67.007812 324.09375 L 67.007812 324.089844 C 67.007812 313.734375 70.832031 295.332031 80.964844 289.570312 C 81.871094 289.503906 82.800781 289.46875 83.761719 289.46875 C 84.722656 289.46875 85.652344 289.503906 86.558594 289.570312 C 96.695312 295.332031 100.515625 313.734375 100.515625 324.089844 Z M 86.265625 313.644531 C 86.265625 312.257812 85.144531 311.136719 83.761719 311.136719 C 82.378906 311.136719 81.257812 312.257812 81.257812 313.644531 C 81.257812 315.027344 82.378906 316.152344 83.761719 316.152344 C 85.144531 316.152344 86.265625 315.027344 86.265625 313.644531 Z M 86.265625 313.644531 " fill-opacity="1" fill-rule="nonzero"/><path fill="#c19b7a" d="M 118.507812 325.304688 L 125.976562 329.542969 C 125.976562 329.542969 114.738281 340.964844 83.761719 340.964844 C 52.785156 340.964844 41.546875 329.542969 41.546875 329.542969 L 49.015625 325.304688 C 49.015625 325.304688 58.5 332.484375 83.761719 332.484375 C 109.023438 332.484375 118.507812 325.304688 118.507812 325.304688 Z M 118.507812 325.304688 " fill-opacity="1" fill-rule="nonzero"/><g clip-path="url(#e5ff19c7b0)"><path fill="#dbbb9c" d="M 83.761719 281.40625 C 89.640625 281.40625 91.890625 286.371094 91.890625 290.386719 C 90.597656 290.078125 89.246094 289.839844 87.828125 289.683594 C 87.828125 289.683594 87.457031 285.234375 83.761719 285.234375 C 80.066406 285.234375 79.699219 289.683594 79.699219 289.683594 C 78.28125 289.839844 76.925781 290.078125 75.632812 290.386719 C 75.632812 286.371094 77.882812 281.40625 83.761719 281.40625 Z M 83.761719 281.40625 " fill-opacity="1" fill-rule="nonzero"/></g><path fill="#dbbb9c" d="M 117.269531 319.132812 C 118.234375 322.808594 118.507812 325.304688 118.507812 325.304688 C 118.507812 325.304688 109.023438 332.484375 83.761719 332.484375 C 58.5 332.484375 49.015625 325.304688 49.015625 325.304688 C 49.015625 325.304688 49.289062 322.808594 50.253906 319.132812 C 50.253906 319.132812 55.488281 322.296875 67.007812 324.09375 C 71.582031 324.804688 77.144531 325.304688 83.761719 325.304688 C 90.382812 325.304688 95.941406 324.804688 100.515625 324.09375 C 112.039062 322.296875 117.269531 319.132812 117.269531 319.132812 Z M 117.269531 319.132812 " fill-opacity="1" fill-rule="nonzero"/><g clip-path="url(#e5d26f83e9)"><path fill="#dbbb9c" d="M 149.347656 345.921875 C 149.347656 346.925781 149.0625 347.886719 148.558594 348.710938 C 148.054688 349.535156 147.324219 350.222656 146.429688 350.679688 C 144.933594 351.449219 142.789062 352.394531 139.84375 353.390625 C 130.621094 356.515625 113.535156 360.113281 83.761719 360.113281 C 44.472656 360.113281 27.273438 353.84375 21.09375 350.679688 C 19.308594 349.765625 18.175781 347.929688 18.175781 345.921875 C 18.175781 344.960938 18.4375 344.035156 18.902344 343.230469 C 19.367188 342.433594 20.042969 341.75 20.878906 341.277344 L 41.546875 329.542969 C 41.546875 329.542969 52.785156 340.964844 83.761719 340.964844 C 114.738281 340.964844 125.976562 329.542969 125.976562 329.542969 L 139.84375 337.414062 L 146.644531 341.277344 C 148.316406 342.226562 149.347656 344 149.347656 345.921875 Z M 149.347656 345.921875 " fill-opacity="1" fill-rule="nonzero"/></g><g clip-path="url(#ae958c4f8c)"><path fill="#d1af8f" d="M 41.546875 329.542969 L 20.878906 341.277344 C 20.042969 341.75 19.367188 342.433594 18.902344 343.230469 C 18.4375 344.035156 18.175781 344.960938 18.175781 345.921875 C 18.175781 347.929688 19.308594 349.765625 21.09375 350.679688 C 27.273438 353.84375 44.472656 360.113281 83.761719 360.113281 C 113.535156 360.113281 130.621094 356.515625 139.84375 353.390625 C 91.230469 352.011719 55.160156 345.429688 41.546875 329.542969 Z M 41.546875 329.542969 " fill-opacity="1" fill-rule="nonzero"/></g><g clip-path="url(#cb1b19c79c)"><path fill="#000000" d="M 124.808594 490.945312 C 122.671875 496.269531 119.457031 501.15625 115.28125 505.335938 C 111.28125 509.332031 106.636719 512.449219 101.578125 514.585938 C 98.601562 515.84375 87.679688 519.960938 93.433594 503.476562 C 98.125 490.027344 110.542969 484.726562 119.199219 484.65625 C 124.9375 484.613281 125.578125 489.027344 124.808594 490.945312 Z M 74.6875 474.871094 C 74.6875 469.277344 79.21875 464.742188 84.8125 464.742188 C 90.40625 464.742188 94.941406 469.277344 94.941406 474.871094 C 94.941406 480.460938 90.40625 484.996094 84.8125 484.996094 C 79.21875 484.996094 74.6875 480.460938 74.6875 474.871094 Z M 68.046875 514.585938 C 62.992188 512.449219 58.34375 509.332031 54.347656 505.335938 C 50.167969 501.15625 46.953125 496.269531 44.816406 490.945312 C 44.046875 489.027344 44.6875 484.613281 50.429688 484.65625 C 59.082031 484.726562 71.5 490.027344 76.195312 503.476562 C 81.945312 519.960938 71.023438 515.84375 68.046875 514.585938 Z M 43.832031 461.496094 C 45.90625 455.121094 49.472656 449.28125 54.347656 444.402344 C 62.484375 436.265625 73.304688 431.78125 84.8125 431.78125 C 96.320312 431.78125 107.140625 436.265625 115.28125 444.402344 C 120.15625 449.28125 123.71875 455.121094 125.792969 461.496094 C 126.964844 465.109375 122.878906 468.132812 119.734375 466.003906 C 110.835938 459.976562 98.476562 456.242188 84.8125 456.242188 C 71.148438 456.242188 58.792969 459.976562 49.890625 466.003906 C 46.746094 468.132812 42.660156 465.109375 43.832031 461.496094 Z M 84.8125 421.273438 C 55.210938 421.273438 31.21875 445.269531 31.21875 474.871094 C 31.21875 504.472656 55.210938 528.464844 84.8125 528.464844 C 114.414062 528.464844 138.40625 504.472656 138.40625 474.871094 C 138.40625 445.269531 114.414062 421.273438 84.8125 421.273438 " fill-opacity="1" fill-rule="nonzero"/></g><g clip-path="url(#35a5d33a7a)"><g clip-path="url(#f9dfc4f3e0)"><g clip-path="url(#8f28e71018)"><path fill="#bb5f66" d="M 36.285156 430.503906 L 54.59375 417.527344 L 64.628906 431.6875 L 46.320312 444.664062 Z M 36.285156 430.503906 " fill-opacity="1" fill-rule="nonzero"/></g></g></g><g clip-path="url(#a936ecc443)"><g clip-path="url(#d066a2accd)"><g clip-path="url(#5469f18d21)"><path fill="#bb5f66" d="M 114.601562 417.546875 L 133.046875 430.328125 L 123.160156 444.59375 L 104.714844 431.8125 Z M 114.601562 417.546875 " fill-opacity="1" fill-rule="nonzero"/></g></g></g></svg>