<svg xmlns="http://www.w3.org/2000/svg" xmlns:xlink="http://www.w3.org/1999/xlink" width="643" zoomAndPan="magnify" viewBox="0 0 482.25 520.499984" height="694" preserveAspectRatio="xMidYMid meet" version="1.0"><defs><clipPath id="368ce55faa"><path d="M 0 38.019531 L 481.5 38.019531 L 481.5 519.519531 L 0 519.519531 Z M 0 38.019531 " clip-rule="nonzero"/></clipPath><clipPath id="c406f11ace"><path d="M 74 16 L 173 16 L 173 106 L 74 106 Z M 74 16 " clip-rule="nonzero"/></clipPath><clipPath id="75335452b3"><path d="M 60.246094 50.527344 L 149.261719 2.644531 L 186.296875 71.488281 L 97.28125 119.375 Z M 60.246094 50.527344 " clip-rule="nonzero"/></clipPath><clipPath id="1e710861ef"><path d="M 114.710938 21.230469 C 133.71875 11.003906 157.421875 18.125 167.648438 37.136719 C 177.875 56.144531 170.753906 79.847656 151.746094 90.074219 L 131.703125 100.855469 C 112.695312 111.082031 88.992188 103.960938 78.765625 84.949219 C 68.539062 65.9375 75.660156 42.238281 94.667969 32.011719 Z M 114.710938 21.230469 " clip-rule="nonzero"/></clipPath><clipPath id="9fe64ac483"><path d="M 309 13 L 408 13 L 408 103 L 309 103 Z M 309 13 " clip-rule="nonzero"/></clipPath><clipPath id="2e3e3c4ec6"><path d="M 331.960938 0.15625 L 421.265625 47.496094 L 384.648438 116.566406 L 295.34375 69.222656 Z M 331.960938 0.15625 " clip-rule="nonzero"/></clipPath><clipPath id="c51ae9ce21"><path d="M 386.601562 29.121094 C 405.671875 39.230469 412.9375 62.890625 402.828125 81.964844 C 392.714844 101.035156 369.058594 108.300781 349.984375 98.191406 L 329.878906 87.53125 C 310.804688 77.421875 303.542969 53.761719 313.652344 34.6875 C 323.765625 15.617188 347.421875 8.351562 366.496094 18.460938 Z M 386.601562 29.121094 " clip-rule="nonzero"/></clipPath></defs><g clip-path="url(#368ce55faa)"><path fill="#000000" d="M 420.414062 350.980469 C 410.8125 374.890625 396.378906 396.855469 377.605469 415.625 C 359.652344 433.582031 338.777344 447.578125 316.066406 457.167969 C 302.695312 462.824219 253.625 481.328125 279.46875 407.265625 C 300.550781 346.859375 356.328125 323.042969 395.207031 322.742188 C 420.992188 322.542969 423.875 342.367188 420.414062 350.980469 Z M 195.261719 278.769531 C 195.261719 253.644531 215.625 233.28125 240.75 233.28125 C 265.875 233.28125 286.242188 253.644531 286.242188 278.769531 C 286.242188 303.894531 265.875 324.261719 240.75 324.261719 C 215.625 324.261719 195.261719 303.894531 195.261719 278.769531 Z M 165.4375 457.167969 C 142.722656 447.578125 121.851562 433.582031 103.894531 415.625 C 85.125 396.855469 70.6875 374.890625 61.085938 350.980469 C 57.625 342.367188 60.507812 322.542969 86.292969 322.742188 C 125.171875 323.042969 180.953125 346.859375 202.035156 407.265625 C 227.878906 481.328125 178.808594 462.824219 165.4375 457.167969 Z M 56.671875 218.691406 C 65.984375 190.054688 81.992188 163.820312 103.894531 141.914062 C 140.449219 105.363281 189.054688 85.21875 240.75 85.226562 C 292.445312 85.21875 341.050781 105.363281 377.605469 141.914062 C 399.507812 163.820312 415.515625 190.054688 424.828125 218.691406 C 430.097656 234.921875 411.75 248.507812 397.617188 238.9375 C 357.640625 211.867188 302.125 195.089844 240.75 195.089844 C 179.375 195.089844 123.859375 211.867188 83.882812 238.9375 C 69.753906 248.507812 51.402344 234.921875 56.671875 218.691406 Z M 240.75 38.019531 C 107.785156 38.019531 0 145.800781 0 278.769531 C 0 411.738281 107.785156 519.519531 240.75 519.519531 C 373.71875 519.519531 481.5 411.738281 481.5 278.769531 C 481.5 145.800781 373.71875 38.019531 240.75 38.019531 " fill-opacity="1" fill-rule="nonzero"/></g><g clip-path="url(#c406f11ace)"><g clip-path="url(#75335452b3)"><g clip-path="url(#1e710861ef)"><path fill="#bb5f66" d="M 60.246094 50.527344 L 149.261719 2.644531 L 186.296875 71.488281 L 97.28125 119.375 Z M 60.246094 50.527344 " fill-opacity="1" fill-rule="nonzero"/></g></g></g><g clip-path="url(#9fe64ac483)"><g clip-path="url(#2e3e3c4ec6)"><g clip-path="url(#c51ae9ce21)"><path fill="#bb5f66" d="M 331.960938 0.15625 L 421.265625 47.496094 L 384.648438 116.566406 L 295.34375 69.222656 Z M 331.960938 0.15625 " fill-opacity="1" fill-rule="nonzero"/></g></g></g></svg>